<?xml version="1.0" encoding="UTF-8" standalone="no"?>
<!DOCTYPE svg PUBLIC "-//W3C//DTD SVG 1.1//EN" "http://www.w3.org/Graphics/SVG/1.1/DTD/svg11.dtd">
<svg width="100%" height="100%" viewBox="0 0 300 300" version="1.1" xmlns="http://www.w3.org/2000/svg" xmlns:xlink="http://www.w3.org/1999/xlink" xml:space="preserve" xmlns:serif="http://www.serif.com/" style="fill-rule:evenodd;clip-rule:evenodd;stroke-linejoin:round;stroke-miterlimit:2;">
    <g id="Layer1" transform="matrix(1,0,0,1,6.30769,18.2518)">
        <path d="M29.485,97.931C38.235,93.309 50.693,87.43 64.16,81.303C71.609,77.914 79.177,74.481 86.739,71.924C94.805,69.197 102.688,67.387 109.888,67.845C113.478,68.042 117.061,69.395 120.766,71.1C126.626,73.797 132.511,77.797 138.514,81.994C149.52,89.688 160.67,98.273 171.122,103.847C178.99,108.043 186.603,110.611 193.62,110.715C201.772,110.712 210.122,108.789 217.94,104.751C220.873,103.236 223.718,101.514 226.453,99.518C231.664,95.715 236.473,91.44 240.877,86.865C248.326,79.127 254.252,71.306 258.698,65.52C259.198,65.042 259.215,64.249 258.737,63.749C258.259,63.25 257.466,63.232 256.966,63.71C248.044,70.082 233.867,79.643 218.756,86.008C216.206,87.082 213.66,87.991 211.114,88.88C205.529,90.828 199.948,92.022 194.492,91.523C191.1,91.256 187.667,89.658 184.004,87.708C178.31,84.677 172.457,80.331 166.356,75.841C155.505,67.855 144.155,59.176 133.064,53.827C125.359,50.111 117.702,47.944 110.392,47.959C98.123,48.166 84.431,52.696 71.4,59.818C68.708,61.289 66.017,62.792 63.443,64.503C59.585,67.066 55.944,69.8 52.459,72.694C42.421,81.031 34.23,89.624 27.998,95.915C27.441,96.325 27.323,97.11 27.733,97.667C28.144,98.223 28.929,98.342 29.485,97.931Z"/>
        <g transform="matrix(1,0,0,1,0,48.2517)">
            <path d="M29.485,97.931C38.235,93.309 50.693,87.43 64.16,81.303C71.609,77.914 79.177,74.481 86.739,71.924C94.805,69.197 102.688,67.387 109.888,67.845C113.478,68.042 117.061,69.395 120.766,71.1C126.626,73.797 132.511,77.797 138.514,81.994C149.52,89.688 160.67,98.273 171.122,103.847C178.99,108.043 186.603,110.611 193.62,110.715C201.772,110.712 210.122,108.789 217.94,104.751C220.873,103.236 223.718,101.514 226.453,99.518C231.664,95.715 236.473,91.44 240.877,86.865C248.326,79.127 254.252,71.306 258.698,65.52C259.198,65.042 259.215,64.249 258.737,63.749C258.259,63.25 257.466,63.232 256.966,63.71C248.044,70.082 233.867,79.643 218.756,86.008C216.206,87.082 213.66,87.991 211.114,88.88C205.529,90.828 199.948,92.022 194.492,91.523C191.1,91.256 187.667,89.658 184.004,87.708C178.31,84.677 172.457,80.331 166.356,75.841C155.505,67.855 144.155,59.176 133.064,53.827C125.359,50.111 117.702,47.944 110.392,47.959C98.123,48.166 84.431,52.696 71.4,59.818C68.708,61.289 66.017,62.792 63.443,64.503C59.585,67.066 55.944,69.8 52.459,72.694C42.421,81.031 34.23,89.624 27.998,95.915C27.441,96.325 27.323,97.11 27.733,97.667C28.144,98.223 28.929,98.342 29.485,97.931Z"/>
        </g>
        <g transform="matrix(1,0,0,1,0,95.6643)">
            <path d="M29.485,97.931C38.235,93.309 50.693,87.43 64.16,81.303C71.609,77.914 79.177,74.481 86.739,71.924C94.805,69.197 102.688,67.387 109.888,67.845C113.478,68.042 117.061,69.395 120.766,71.1C126.626,73.797 132.511,77.797 138.514,81.994C149.52,89.688 160.67,98.273 171.122,103.847C178.99,108.043 186.603,110.611 193.62,110.715C201.772,110.712 210.122,108.789 217.94,104.751C220.873,103.236 223.718,101.514 226.453,99.518C231.664,95.715 236.473,91.44 240.877,86.865C248.326,79.127 254.252,71.306 258.698,65.52C259.198,65.042 259.215,64.249 258.737,63.749C258.259,63.25 257.466,63.232 256.966,63.71C248.044,70.082 233.867,79.643 218.756,86.008C216.206,87.082 213.66,87.991 211.114,88.88C205.529,90.828 199.948,92.022 194.492,91.523C191.1,91.256 187.667,89.658 184.004,87.708C178.31,84.677 172.457,80.331 166.356,75.841C155.505,67.855 144.155,59.176 133.064,53.827C125.359,50.111 117.702,47.944 110.392,47.959C98.123,48.166 84.431,52.696 71.4,59.818C68.708,61.289 66.017,62.792 63.443,64.503C59.585,67.066 55.944,69.8 52.459,72.694C42.421,81.031 34.23,89.624 27.998,95.915C27.441,96.325 27.323,97.11 27.733,97.667C28.144,98.223 28.929,98.342 29.485,97.931Z"/>
        </g>
    </g>
</svg>
