<?xml version="1.0" encoding="UTF-8" standalone="no"?>
<!DOCTYPE svg PUBLIC "-//W3C//DTD SVG 1.1//EN" "http://www.w3.org/Graphics/SVG/1.1/DTD/svg11.dtd">
<svg width="100%" height="100%" viewBox="0 0 300 300" version="1.1" xmlns="http://www.w3.org/2000/svg" xmlns:xlink="http://www.w3.org/1999/xlink" xml:space="preserve" xmlns:serif="http://www.serif.com/" style="fill-rule:evenodd;clip-rule:evenodd;stroke-linejoin:round;stroke-miterlimit:2;">
    <g id="Layer1" transform="matrix(0.870601,0,0,0.870601,19.4099,19.4099)">
        <path d="M150,3C84.043,3 3,56.652 3,150C3,254.217 77.522,297 150,297C222.478,297 297,237.696 297,150C297,43.174 199,3 150,3ZM150,25.421C174.193,24.366 212.694,33.69 242,59.344C264.845,79.342 282.1,108.868 283.485,150C283.742,188.422 268.455,221.162 244.749,244.424C219.219,269.475 184.197,283.471 150,283.139C114.762,282.612 79.06,271.113 53.959,245.657C32.811,224.21 19.839,192.688 20.54,150C21.294,112.044 37.366,81.97 60.082,60.805C85.646,36.986 119.82,24.742 150,25.421Z"/>
        <g transform="matrix(1.14863,0,0,1.14863,-22.2949,-22.2949)">
            <path d="M183.532,33.846C162.449,37.443 139.881,56.951 122.862,80.936C106.065,104.608 94.651,132.36 94.261,151.588C94.14,162.105 96.368,174.191 101.208,186.311C105.31,196.583 111.242,206.885 118.994,216.297C127.783,226.918 138.862,236.436 151.841,244.435C163.456,251.593 176.555,257.555 190.798,262.089C191.95,262.488 193.211,261.877 193.61,260.724C194.01,259.571 193.398,258.311 192.246,257.911C178.692,252.822 166.323,246.401 155.426,238.924C143.574,230.792 133.521,221.389 125.716,210.996C118.967,202.053 113.969,192.35 110.551,182.778C106.669,171.904 104.903,161.187 105.304,151.89C105.907,134.357 117.154,109.422 132.685,87.978C147.835,67.061 167.067,49.214 185.598,46.154C188.995,45.584 191.289,42.363 190.719,38.967C190.149,35.57 186.928,33.276 183.532,33.846Z"/>
        </g>
        <g transform="matrix(1.14863,0,0,1.14863,-52.7586,-20.2973)">
            <path d="M182.228,26.02C164.05,29.117 145.824,44.313 131.243,64.801C112.21,91.545 99.205,126.973 99.018,152.535C99.03,162.763 100.979,175.103 105.694,187.612C109.633,198.063 115.461,208.635 123.518,218.214C133.187,229.657 145.827,239.82 160.156,248.293C173.401,256.126 188.046,262.537 202.972,267.306C204.124,267.706 205.385,267.094 205.784,265.941C206.184,264.789 205.572,263.528 204.42,263.129C190.135,257.784 176.213,250.841 163.691,242.623C150.536,233.99 138.975,223.929 130.328,212.715C123.344,203.701 118.477,193.848 115.218,184.208C111.389,172.881 109.859,161.827 110.112,152.682C110.507,132.78 119.651,106.631 133.098,84.164C146.947,61.025 165.248,41.476 184.294,38.328C187.69,37.758 189.985,34.537 189.415,31.141C188.845,27.744 185.624,25.45 182.228,26.02Z"/>
        </g>
        <g transform="matrix(1.14863,0,0,1.14863,-82.7229,-20.2973)">
            <path d="M155.37,36.892C141.654,50.682 127.91,68.785 117.886,89.751C108.756,108.847 102.709,130.295 102.347,152.919C102.249,164.269 104.413,178.152 109.969,192.219C114.531,203.769 121.342,215.441 130.816,225.975C140.185,236.324 152.352,245.464 165.858,253.066C178.552,260.211 192.381,266.023 206.015,270.349C207.168,270.749 208.428,270.138 208.828,268.985C209.227,267.832 208.616,266.572 207.463,266.172C194.426,261.264 181.288,254.884 169.293,247.309C156.932,239.503 145.831,230.41 137.475,220.233C129.213,210.237 123.508,199.277 119.695,188.568C115.145,175.792 113.383,163.34 113.74,153.168C114.32,132.287 120.236,112.592 128.817,95.035C138.374,75.479 151.279,58.564 164.195,45.717C166.63,43.281 166.63,39.327 164.195,36.892C161.76,34.457 157.805,34.457 155.37,36.892Z"/>
        </g>
    </g>
</svg>
