<?xml version="1.0" encoding="UTF-8" standalone="no"?>
<!DOCTYPE svg PUBLIC "-//W3C//DTD SVG 1.1//EN" "http://www.w3.org/Graphics/SVG/1.1/DTD/svg11.dtd">
<svg width="100%" height="100%" viewBox="0 0 300 300" version="1.1" xmlns="http://www.w3.org/2000/svg" xmlns:xlink="http://www.w3.org/1999/xlink" xml:space="preserve" xmlns:serif="http://www.serif.com/" style="fill-rule:evenodd;clip-rule:evenodd;stroke-linejoin:round;stroke-miterlimit:2;">
    <g transform="matrix(1.37115,0,0,1.37115,-40.7691,-25.5672)">
        <g transform="matrix(1,0,0,1,1.08696,-6.95652)">
            <path d="M133.287,66.522C133.287,66.522 134.02,68.544 134.621,72.174C134.889,73.793 135.019,75.698 135.168,77.826C136.323,94.312 137.136,123.043 137.136,123.043C137.136,123.544 137.543,123.951 138.043,123.951C138.544,123.951 138.951,123.544 138.951,123.043C138.951,123.043 139.764,94.312 140.919,77.826C141.068,75.698 141.198,73.793 141.466,72.174C142.067,68.544 142.8,66.522 142.8,66.522C142.8,63.897 140.669,61.765 138.043,61.765C135.418,61.765 133.287,63.897 133.287,66.522Z"/>
        </g>
        <g transform="matrix(1.17537,0,0,1.17537,-24.3999,-11.9222)">
            <path d="M139.13,42.296C136.508,42.083 134.098,43.048 132.245,44.636C130.298,46.304 129.13,48.766 128.929,51.522C128.763,54.39 129.861,57.026 131.66,58.992C133.504,61.008 136.187,62.193 139.13,62.285C142.081,62.218 144.78,61.041 146.639,59.03C148.459,57.063 149.56,54.406 149.399,51.522C149.186,48.75 148.014,46.272 146.047,44.605C144.179,43.022 141.76,42.064 139.13,42.296ZM139.13,44.661C140.956,44.822 142.487,45.769 143.587,47.066C144.597,48.258 145.078,49.842 144.949,51.522C144.862,53.083 144.06,54.401 142.995,55.386C141.98,56.324 140.62,56.879 139.13,56.845C137.633,56.892 136.253,56.362 135.228,55.424C134.146,54.434 133.336,53.1 133.245,51.522C133.121,49.827 133.618,48.232 134.643,47.035C135.752,45.741 137.3,44.81 139.13,44.661Z"/>
        </g>
        <g transform="matrix(0.729313,0,0,0.729313,29.7335,18.6465)">
            <path d="M150,133.353C144.584,133.353 149.078,72.784 140.693,59.807C131.075,44.921 134.357,41.119 134.357,41.119C134.357,41.119 144.546,51.508 150,51.693C155.454,51.879 165.622,41.119 165.622,41.119C165.622,41.119 169.59,43.422 159.272,59.807C148.304,77.224 155.416,133.353 150,133.353Z"/>
            <path d="M150,133.353C144.584,133.353 149.078,72.784 140.693,59.807C131.075,44.921 134.357,41.119 134.357,41.119C134.357,41.119 144.546,51.508 150,51.693C155.454,51.879 165.622,41.119 165.622,41.119C165.622,41.119 169.59,43.422 159.272,59.807C148.304,77.224 155.416,133.353 150,133.353ZM165.357,42.719C165.425,43.093 165.46,43.591 165.389,44.213C165.099,46.773 163.516,51.316 158.483,59.31C154.913,64.978 153.188,74.668 152.364,85.239C151.149,100.827 151.844,118.341 151.062,127.295C150.878,129.402 150.626,131.009 150.218,131.955C150.158,132.094 150.096,132.215 150.028,132.314L150.012,132.335C149.931,132.223 149.808,132.04 149.732,131.868C149.279,130.844 148.953,129.106 148.684,126.84C147.36,115.695 147.715,92.34 145.746,75.769C144.881,68.488 143.54,62.494 141.477,59.3C136.787,52.041 135.215,47.497 134.843,44.755C134.736,43.969 134.746,43.338 134.8,42.858C136.563,44.547 140.171,47.844 143.713,50.113C145.963,51.554 148.203,52.566 149.968,52.626C151.75,52.686 154.013,51.724 156.281,50.278C159.938,47.945 163.663,44.406 165.357,42.719Z"/>
        </g>
    </g>
    <g transform="matrix(1.15358,-0.741155,0.741155,1.15358,-105.398,105.409)">
        <g transform="matrix(1,0,0,1,1.08696,-6.95652)">
            <path d="M133.287,66.522C133.287,66.522 134.02,68.544 134.621,72.174C134.889,73.793 135.019,75.698 135.168,77.826C136.323,94.312 137.136,123.043 137.136,123.043C137.136,123.544 137.543,123.951 138.043,123.951C138.544,123.951 138.951,123.544 138.951,123.043C138.951,123.043 139.764,94.312 140.919,77.826C141.068,75.698 141.198,73.793 141.466,72.174C142.067,68.544 142.8,66.522 142.8,66.522C142.8,63.897 140.669,61.765 138.043,61.765C135.418,61.765 133.287,63.897 133.287,66.522Z"/>
        </g>
        <g transform="matrix(1.17537,0,0,1.17537,-24.3999,-11.9222)">
            <path d="M139.13,42.296C136.508,42.083 134.098,43.048 132.245,44.636C130.298,46.304 129.13,48.766 128.929,51.522C128.763,54.39 129.861,57.026 131.66,58.992C133.504,61.008 136.187,62.193 139.13,62.285C142.081,62.218 144.78,61.041 146.639,59.03C148.459,57.063 149.56,54.406 149.399,51.522C149.186,48.75 148.014,46.272 146.047,44.605C144.179,43.022 141.76,42.064 139.13,42.296ZM139.13,44.661C140.956,44.822 142.487,45.769 143.587,47.066C144.597,48.258 145.078,49.842 144.949,51.522C144.862,53.083 144.06,54.401 142.995,55.386C141.98,56.324 140.62,56.879 139.13,56.845C137.633,56.892 136.253,56.362 135.228,55.424C134.146,54.434 133.336,53.1 133.245,51.522C133.121,49.827 133.618,48.232 134.643,47.035C135.752,45.741 137.3,44.81 139.13,44.661Z"/>
        </g>
        <g transform="matrix(0.729313,0,0,0.729313,29.7335,18.6465)">
            <path d="M150,133.353C144.584,133.353 149.078,72.784 140.693,59.807C131.075,44.921 134.357,41.119 134.357,41.119C134.357,41.119 144.546,51.508 150,51.693C155.454,51.879 165.622,41.119 165.622,41.119C165.622,41.119 169.59,43.422 159.272,59.807C148.304,77.224 155.416,133.353 150,133.353Z"/>
            <path d="M150,133.353C144.584,133.353 149.078,72.784 140.693,59.807C131.075,44.921 134.357,41.119 134.357,41.119C134.357,41.119 144.546,51.508 150,51.693C155.454,51.879 165.622,41.119 165.622,41.119C165.622,41.119 169.59,43.422 159.272,59.807C148.304,77.224 155.416,133.353 150,133.353ZM165.357,42.719C165.425,43.093 165.46,43.591 165.389,44.213C165.099,46.773 163.516,51.316 158.483,59.31C154.913,64.978 153.188,74.668 152.364,85.239C151.149,100.827 151.844,118.341 151.062,127.295C150.878,129.402 150.626,131.009 150.218,131.955C150.158,132.094 150.096,132.215 150.028,132.314L150.012,132.335C149.931,132.223 149.808,132.04 149.732,131.868C149.279,130.844 148.953,129.106 148.684,126.84C147.36,115.695 147.715,92.34 145.746,75.769C144.881,68.488 143.54,62.494 141.477,59.3C136.787,52.041 135.215,47.497 134.843,44.755C134.736,43.969 134.746,43.338 134.8,42.858C136.563,44.547 140.171,47.844 143.713,50.113C145.963,51.554 148.203,52.566 149.968,52.626C151.75,52.686 154.013,51.724 156.281,50.278C159.938,47.945 163.663,44.406 165.357,42.719Z"/>
        </g>
    </g>
    <g transform="matrix(0.569914,-1.2471,1.2471,0.569914,-88.9755,250.536)">
        <g transform="matrix(1,0,0,1,1.08696,-6.95652)">
            <path d="M133.287,66.522C133.287,66.522 134.02,68.544 134.621,72.174C134.889,73.793 135.019,75.698 135.168,77.826C136.323,94.312 137.136,123.043 137.136,123.043C137.136,123.544 137.543,123.951 138.043,123.951C138.544,123.951 138.951,123.544 138.951,123.043C138.951,123.043 139.764,94.312 140.919,77.826C141.068,75.698 141.198,73.793 141.466,72.174C142.067,68.544 142.8,66.522 142.8,66.522C142.8,63.897 140.669,61.765 138.043,61.765C135.418,61.765 133.287,63.897 133.287,66.522Z"/>
        </g>
        <g transform="matrix(1.17537,0,0,1.17537,-24.3999,-11.9222)">
            <path d="M139.13,42.296C136.508,42.083 134.098,43.048 132.245,44.636C130.298,46.304 129.13,48.766 128.929,51.522C128.763,54.39 129.861,57.026 131.66,58.992C133.504,61.008 136.187,62.193 139.13,62.285C142.081,62.218 144.78,61.041 146.639,59.03C148.459,57.063 149.56,54.406 149.399,51.522C149.186,48.75 148.014,46.272 146.047,44.605C144.179,43.022 141.76,42.064 139.13,42.296ZM139.13,44.661C140.956,44.822 142.487,45.769 143.587,47.066C144.597,48.258 145.078,49.842 144.949,51.522C144.862,53.083 144.06,54.401 142.995,55.386C141.98,56.324 140.62,56.879 139.13,56.845C137.633,56.892 136.253,56.362 135.228,55.424C134.146,54.434 133.336,53.1 133.245,51.522C133.121,49.827 133.618,48.232 134.643,47.035C135.752,45.741 137.3,44.81 139.13,44.661Z"/>
        </g>
        <g transform="matrix(0.729313,0,0,0.729313,29.7335,18.6465)">
            <path d="M150,133.353C144.584,133.353 149.078,72.784 140.693,59.807C131.075,44.921 134.357,41.119 134.357,41.119C134.357,41.119 144.546,51.508 150,51.693C155.454,51.879 165.622,41.119 165.622,41.119C165.622,41.119 169.59,43.422 159.272,59.807C148.304,77.224 155.416,133.353 150,133.353Z"/>
            <path d="M150,133.353C144.584,133.353 149.078,72.784 140.693,59.807C131.075,44.921 134.357,41.119 134.357,41.119C134.357,41.119 144.546,51.508 150,51.693C155.454,51.879 165.622,41.119 165.622,41.119C165.622,41.119 169.59,43.422 159.272,59.807C148.304,77.224 155.416,133.353 150,133.353ZM165.357,42.719C165.425,43.093 165.46,43.591 165.389,44.213C165.099,46.773 163.516,51.316 158.483,59.31C154.913,64.978 153.188,74.668 152.364,85.239C151.149,100.827 151.844,118.341 151.062,127.295C150.878,129.402 150.626,131.009 150.218,131.955C150.158,132.094 150.096,132.215 150.028,132.314L150.012,132.335C149.931,132.223 149.808,132.04 149.732,131.868C149.279,130.844 148.953,129.106 148.684,126.84C147.36,115.695 147.715,92.34 145.746,75.769C144.881,68.488 143.54,62.494 141.477,59.3C136.787,52.041 135.215,47.497 134.843,44.755C134.736,43.969 134.746,43.338 134.8,42.858C136.563,44.547 140.171,47.844 143.713,50.113C145.963,51.554 148.203,52.566 149.968,52.626C151.75,52.686 154.013,51.724 156.281,50.278C159.938,47.945 163.663,44.406 165.357,42.719Z"/>
        </g>
    </g>
    <g transform="matrix(-0.194619,-1.35727,1.35727,-0.194619,3.28767,363.757)">
        <g transform="matrix(1,0,0,1,1.08696,-6.95652)">
            <path d="M133.287,66.522C133.287,66.522 134.02,68.544 134.621,72.174C134.889,73.793 135.019,75.698 135.168,77.826C136.323,94.312 137.136,123.043 137.136,123.043C137.136,123.544 137.543,123.951 138.043,123.951C138.544,123.951 138.951,123.544 138.951,123.043C138.951,123.043 139.764,94.312 140.919,77.826C141.068,75.698 141.198,73.793 141.466,72.174C142.067,68.544 142.8,66.522 142.8,66.522C142.8,63.897 140.669,61.765 138.043,61.765C135.418,61.765 133.287,63.897 133.287,66.522Z"/>
        </g>
        <g transform="matrix(1.17537,0,0,1.17537,-24.3999,-11.9222)">
            <path d="M139.13,42.296C136.508,42.083 134.098,43.048 132.245,44.636C130.298,46.304 129.13,48.766 128.929,51.522C128.763,54.39 129.861,57.026 131.66,58.992C133.504,61.008 136.187,62.193 139.13,62.285C142.081,62.218 144.78,61.041 146.639,59.03C148.459,57.063 149.56,54.406 149.399,51.522C149.186,48.75 148.014,46.272 146.047,44.605C144.179,43.022 141.76,42.064 139.13,42.296L139.13,42.296ZM139.13,44.661C140.956,44.822 142.487,45.769 143.587,47.066C144.597,48.258 145.078,49.842 144.949,51.522C144.862,53.083 144.06,54.401 142.995,55.386C141.98,56.324 140.62,56.879 139.13,56.845C137.633,56.892 136.253,56.362 135.228,55.424C134.146,54.434 133.336,53.1 133.245,51.522C133.121,49.827 133.618,48.232 134.643,47.035C135.752,45.741 137.3,44.81 139.13,44.661L139.13,44.661Z"/>
        </g>
        <g transform="matrix(0.729313,0,0,0.729313,29.7335,18.6465)">
            <path d="M150,133.353C144.584,133.353 149.078,72.784 140.693,59.807C131.075,44.921 134.357,41.119 134.357,41.119C134.357,41.119 144.546,51.508 150,51.693C155.454,51.879 165.622,41.119 165.622,41.119C165.622,41.119 169.59,43.422 159.272,59.807C148.304,77.224 155.416,133.353 150,133.353Z"/>
            <path d="M150,133.353C144.584,133.353 149.078,72.784 140.693,59.807C131.075,44.921 134.357,41.119 134.357,41.119C134.357,41.119 144.546,51.508 150,51.693C155.454,51.879 165.622,41.119 165.622,41.119C165.622,41.119 169.59,43.422 159.272,59.807C148.304,77.224 155.416,133.353 150,133.353ZM150.012,132.335C149.931,132.223 149.808,132.04 149.732,131.868C149.279,130.844 148.953,129.106 148.684,126.84C147.36,115.695 147.715,92.34 145.746,75.769C144.881,68.488 143.54,62.494 141.477,59.3C136.787,52.041 135.215,47.497 134.843,44.755C134.736,43.969 134.746,43.338 134.8,42.858C136.563,44.547 140.171,47.844 143.713,50.113C145.963,51.554 148.203,52.566 149.968,52.626C151.75,52.686 154.013,51.724 156.281,50.278C159.938,47.945 163.663,44.406 165.357,42.719C165.425,43.093 165.46,43.591 165.389,44.213C165.099,46.773 163.516,51.316 158.483,59.31C154.913,64.978 153.188,74.668 152.364,85.239C151.149,100.827 151.844,118.341 151.062,127.295C150.878,129.402 150.626,131.009 150.218,131.955C150.158,132.094 150.096,132.215 150.028,132.314L150.012,132.335Z"/>
        </g>
    </g>
    <g transform="matrix(-0.897388,-1.0367,1.0367,-0.897388,142.111,409.142)">
        <g transform="matrix(1,0,0,1,1.08696,-6.95652)">
            <path d="M133.287,66.522C133.287,66.522 134.02,68.544 134.621,72.174C134.889,73.793 135.019,75.698 135.168,77.826C136.323,94.312 137.136,123.043 137.136,123.043C137.136,123.544 137.543,123.951 138.043,123.951C138.544,123.951 138.951,123.544 138.951,123.043C138.951,123.043 139.764,94.312 140.919,77.826C141.068,75.698 141.198,73.793 141.466,72.174C142.067,68.544 142.8,66.522 142.8,66.522C142.8,63.897 140.669,61.765 138.043,61.765C135.418,61.765 133.287,63.897 133.287,66.522Z"/>
        </g>
        <g transform="matrix(1.17537,0,0,1.17537,-24.3999,-11.9222)">
            <path d="M139.13,42.296C136.508,42.083 134.098,43.048 132.245,44.636C130.298,46.304 129.13,48.766 128.929,51.522C128.763,54.39 129.861,57.026 131.66,58.992C133.504,61.008 136.187,62.193 139.13,62.285C142.081,62.218 144.78,61.041 146.639,59.03C148.459,57.063 149.56,54.406 149.399,51.522C149.186,48.75 148.014,46.272 146.047,44.605C144.179,43.022 141.76,42.064 139.13,42.296L139.13,42.296ZM139.13,44.661C140.956,44.822 142.487,45.769 143.587,47.066C144.597,48.258 145.078,49.842 144.949,51.522C144.862,53.083 144.06,54.401 142.995,55.386C141.98,56.324 140.62,56.879 139.13,56.845C137.633,56.892 136.253,56.362 135.228,55.424C134.146,54.434 133.336,53.1 133.245,51.522C133.121,49.827 133.618,48.232 134.643,47.035C135.752,45.741 137.3,44.81 139.13,44.661L139.13,44.661Z"/>
        </g>
        <g transform="matrix(0.729313,0,0,0.729313,29.7335,18.6465)">
            <path d="M150,133.353C144.584,133.353 149.078,72.784 140.693,59.807C131.075,44.921 134.357,41.119 134.357,41.119C134.357,41.119 144.546,51.508 150,51.693C155.454,51.879 165.622,41.119 165.622,41.119C165.622,41.119 169.59,43.422 159.272,59.807C148.304,77.224 155.416,133.353 150,133.353Z"/>
            <path d="M165.097,41.659C165.434,41.317 165.622,41.119 165.622,41.119C165.622,41.119 169.59,43.422 159.272,59.807C148.304,77.224 155.416,133.353 150,133.353C144.584,133.353 149.078,72.784 140.693,59.807C131.075,44.921 134.357,41.119 134.357,41.119C134.357,41.119 144.546,51.508 150,51.693C154.626,51.851 162.643,44.133 164.971,41.787L164.996,41.811C165.024,41.836 165.053,41.859 165.083,41.88L165.081,41.877L165.138,41.916L165.097,41.659ZM150.012,132.335C149.931,132.223 149.808,132.04 149.732,131.868C149.279,130.844 148.953,129.106 148.684,126.84C147.36,115.695 147.715,92.34 145.746,75.769C144.881,68.488 143.54,62.494 141.477,59.3C136.787,52.041 135.215,47.497 134.843,44.755C134.736,43.969 134.746,43.338 134.8,42.858C136.563,44.547 140.171,47.844 143.713,50.113C145.963,51.554 148.203,52.566 149.968,52.626C151.75,52.686 154.013,51.724 156.281,50.278C159.938,47.945 163.663,44.406 165.357,42.719C165.425,43.093 165.46,43.591 165.389,44.213C165.099,46.773 163.516,51.316 158.483,59.31C154.913,64.978 153.188,74.668 152.364,85.239C151.149,100.827 151.844,118.341 151.062,127.295C150.878,129.402 150.626,131.009 150.218,131.955C150.158,132.094 150.096,132.215 150.028,132.314L150.012,132.335Z"/>
        </g>
    </g>
    <g transform="matrix(-1.31537,-0.387133,0.387133,-1.31537,283.438,372.286)">
        <g transform="matrix(1,0,0,1,1.08696,-6.95652)">
            <path d="M133.287,66.522C133.287,66.522 134.02,68.544 134.621,72.174C134.889,73.793 135.019,75.698 135.168,77.826C136.323,94.312 137.136,123.043 137.136,123.043C137.136,123.544 137.543,123.951 138.043,123.951C138.544,123.951 138.951,123.544 138.951,123.043C138.951,123.043 139.764,94.312 140.919,77.826C141.068,75.698 141.198,73.793 141.466,72.174C142.067,68.544 142.8,66.522 142.8,66.522C142.8,63.897 140.669,61.765 138.043,61.765C135.418,61.765 133.287,63.897 133.287,66.522Z"/>
        </g>
        <g transform="matrix(1.17537,0,0,1.17537,-24.3999,-11.9222)">
            <path d="M139.13,42.296C136.508,42.083 134.098,43.048 132.245,44.636C130.298,46.304 129.13,48.766 128.929,51.522C128.763,54.39 129.861,57.026 131.66,58.992C133.504,61.008 136.187,62.193 139.13,62.285C142.081,62.218 144.78,61.041 146.639,59.03C148.459,57.063 149.56,54.406 149.399,51.522C149.186,48.75 148.014,46.272 146.047,44.605C144.179,43.022 141.76,42.064 139.13,42.296L139.13,42.296ZM139.13,44.661C140.956,44.822 142.487,45.769 143.587,47.066C144.597,48.258 145.078,49.842 144.949,51.522C144.862,53.083 144.06,54.401 142.995,55.386C141.98,56.324 140.62,56.879 139.13,56.845C137.633,56.892 136.253,56.362 135.228,55.424C134.146,54.434 133.336,53.1 133.245,51.522C133.121,49.827 133.618,48.232 134.643,47.035C135.752,45.741 137.3,44.81 139.13,44.661L139.13,44.661Z"/>
        </g>
        <g transform="matrix(0.729313,0,0,0.729313,29.7335,18.6465)">
            <path d="M150,133.353C144.584,133.353 149.078,72.784 140.693,59.807C131.075,44.921 134.357,41.119 134.357,41.119C134.357,41.119 144.546,51.508 150,51.693C155.454,51.879 165.622,41.119 165.622,41.119C165.622,41.119 169.59,43.422 159.272,59.807C148.304,77.224 155.416,133.353 150,133.353Z"/>
            <path d="M150,133.353C144.584,133.353 149.078,72.784 140.693,59.807C131.075,44.921 134.357,41.119 134.357,41.119C134.357,41.119 144.546,51.508 150,51.693C155.454,51.879 165.622,41.119 165.622,41.119C165.622,41.119 169.59,43.422 159.272,59.807C148.304,77.224 155.416,133.353 150,133.353ZM150.012,132.335C149.931,132.223 149.808,132.04 149.732,131.868C149.279,130.844 148.953,129.106 148.684,126.84C147.36,115.695 147.715,92.34 145.746,75.769C144.881,68.488 143.54,62.494 141.477,59.3C136.787,52.041 135.215,47.497 134.843,44.755C134.736,43.969 134.746,43.338 134.8,42.858C136.563,44.547 140.171,47.844 143.713,50.113C145.963,51.554 148.203,52.566 149.968,52.626C151.75,52.686 154.013,51.724 156.281,50.278C159.938,47.945 163.663,44.406 165.357,42.719C165.425,43.093 165.46,43.591 165.389,44.213C165.099,46.773 163.516,51.316 158.483,59.31C154.913,64.978 153.188,74.668 152.364,85.239C151.149,100.827 151.844,118.341 151.062,127.295C150.878,129.402 150.626,131.009 150.218,131.955C150.158,132.094 150.096,132.215 150.028,132.314L150.012,132.335Z"/>
        </g>
    </g>
    <g transform="matrix(-1.31591,0.385296,-0.385296,-1.31591,382.417,264.887)">
        <g transform="matrix(1,0,0,1,1.08696,-6.95652)">
            <path d="M133.287,66.522C133.287,66.522 134.02,68.544 134.621,72.174C134.889,73.793 135.019,75.698 135.168,77.826C136.323,94.312 137.136,123.043 137.136,123.043C137.136,123.544 137.543,123.951 138.043,123.951C138.544,123.951 138.951,123.544 138.951,123.043C138.951,123.043 139.764,94.312 140.919,77.826C141.068,75.698 141.198,73.793 141.466,72.174C142.067,68.544 142.8,66.522 142.8,66.522C142.8,63.897 140.669,61.765 138.043,61.765C135.418,61.765 133.287,63.897 133.287,66.522Z"/>
        </g>
        <g transform="matrix(1.17537,0,0,1.17537,-24.3999,-11.9222)">
            <path d="M139.13,42.296C136.508,42.083 134.098,43.048 132.245,44.636C130.298,46.304 129.13,48.766 128.929,51.522C128.763,54.39 129.861,57.026 131.66,58.992C133.504,61.008 136.187,62.193 139.13,62.285C142.081,62.218 144.78,61.041 146.639,59.03C148.459,57.063 149.56,54.406 149.399,51.522C149.186,48.75 148.014,46.272 146.047,44.605C144.179,43.022 141.76,42.064 139.13,42.296ZM139.13,44.661C140.956,44.822 142.487,45.769 143.587,47.066C144.597,48.258 145.078,49.842 144.949,51.522C144.862,53.083 144.06,54.401 142.995,55.386C141.98,56.324 140.62,56.879 139.13,56.845C137.633,56.892 136.253,56.362 135.228,55.424C134.146,54.434 133.336,53.1 133.245,51.522C133.121,49.827 133.618,48.232 134.643,47.035C135.752,45.741 137.3,44.81 139.13,44.661Z"/>
        </g>
        <g transform="matrix(0.729313,0,0,0.729313,29.7335,18.6465)">
            <path d="M150,133.353C144.584,133.353 149.078,72.784 140.693,59.807C131.075,44.921 134.357,41.119 134.357,41.119C134.357,41.119 144.546,51.508 150,51.693C155.454,51.879 165.622,41.119 165.622,41.119C165.622,41.119 169.59,43.422 159.272,59.807C148.304,77.224 155.416,133.353 150,133.353Z"/>
            <path d="M150,133.353C144.584,133.353 149.078,72.784 140.693,59.807C131.075,44.921 134.357,41.119 134.357,41.119C134.357,41.119 144.546,51.508 150,51.693C155.454,51.879 165.622,41.119 165.622,41.119C165.622,41.119 169.59,43.422 159.272,59.807C148.304,77.224 155.416,133.353 150,133.353ZM150.012,132.335C149.931,132.223 149.808,132.04 149.732,131.868C149.279,130.844 148.953,129.106 148.684,126.84C147.36,115.695 147.715,92.34 145.746,75.769C144.881,68.488 143.54,62.494 141.477,59.3C136.787,52.041 135.215,47.497 134.843,44.755C134.736,43.969 134.746,43.338 134.8,42.858C136.563,44.547 140.171,47.844 143.713,50.113C145.963,51.554 148.203,52.566 149.968,52.626C151.75,52.686 154.013,51.724 156.281,50.278C159.938,47.945 163.663,44.406 165.357,42.719C165.425,43.093 165.46,43.591 165.389,44.213C165.099,46.773 163.516,51.316 158.483,59.31C154.913,64.978 153.188,74.668 152.364,85.239C151.149,100.827 151.844,118.341 151.062,127.295C150.878,129.402 150.626,131.009 150.218,131.955C150.158,132.094 150.096,132.215 150.028,132.314L150.012,132.335Z"/>
        </g>
    </g>
    <g transform="matrix(-0.898835,1.03545,-1.03545,-0.898835,407.638,121.027)">
        <g transform="matrix(1,0,0,1,1.08696,-6.95652)">
            <path d="M133.287,66.522C133.287,66.522 134.02,68.544 134.621,72.174C134.889,73.793 135.019,75.698 135.168,77.826C136.323,94.312 137.136,123.043 137.136,123.043C137.136,123.544 137.543,123.951 138.043,123.951C138.544,123.951 138.951,123.544 138.951,123.043C138.951,123.043 139.764,94.312 140.919,77.826C141.068,75.698 141.198,73.793 141.466,72.174C142.067,68.544 142.8,66.522 142.8,66.522C142.8,63.897 140.669,61.765 138.043,61.765C135.418,61.765 133.287,63.897 133.287,66.522Z"/>
        </g>
        <g transform="matrix(1.17537,0,0,1.17537,-24.3999,-11.9222)">
            <path d="M139.13,42.296C136.508,42.083 134.098,43.048 132.245,44.636C130.298,46.304 129.13,48.766 128.929,51.522C128.763,54.39 129.861,57.026 131.66,58.992C133.504,61.008 136.187,62.193 139.13,62.285C142.081,62.218 144.78,61.041 146.639,59.03C148.459,57.063 149.56,54.406 149.399,51.522C149.186,48.75 148.014,46.272 146.047,44.605C144.179,43.022 141.76,42.064 139.13,42.296ZM139.13,44.661C140.956,44.822 142.487,45.769 143.587,47.066C144.597,48.258 145.078,49.842 144.949,51.522C144.862,53.083 144.06,54.401 142.995,55.386C141.98,56.324 140.62,56.879 139.13,56.845C137.633,56.892 136.253,56.362 135.228,55.424C134.146,54.434 133.336,53.1 133.245,51.522C133.121,49.827 133.618,48.232 134.643,47.035C135.752,45.741 137.3,44.81 139.13,44.661Z"/>
        </g>
        <g transform="matrix(0.729313,0,0,0.729313,29.7335,18.6465)">
            <path d="M150,133.353C144.584,133.353 149.078,72.784 140.693,59.807C131.075,44.921 134.357,41.119 134.357,41.119C134.357,41.119 144.546,51.508 150,51.693C155.454,51.879 165.622,41.119 165.622,41.119C165.622,41.119 169.59,43.422 159.272,59.807C148.304,77.224 155.416,133.353 150,133.353Z"/>
            <path d="M150,133.353C144.584,133.353 149.078,72.784 140.693,59.807C131.075,44.921 134.357,41.119 134.357,41.119C134.357,41.119 144.546,51.508 150,51.693C155.454,51.879 165.622,41.119 165.622,41.119C165.622,41.119 169.59,43.422 159.272,59.807C148.304,77.224 155.416,133.353 150,133.353ZM150.012,132.335C149.931,132.223 149.808,132.04 149.732,131.868C149.279,130.844 148.953,129.106 148.684,126.84C147.36,115.695 147.715,92.34 145.746,75.769C144.881,68.488 143.54,62.494 141.477,59.3C136.787,52.041 135.215,47.497 134.843,44.755C134.736,43.969 134.746,43.338 134.8,42.858C136.563,44.547 140.171,47.844 143.713,50.113C145.963,51.554 148.203,52.566 149.968,52.626C151.75,52.686 154.013,51.724 156.281,50.278C159.938,47.945 163.663,44.406 165.357,42.719C165.425,43.093 165.46,43.591 165.389,44.213C165.099,46.773 163.516,51.316 158.483,59.31C154.913,64.978 153.188,74.668 152.364,85.239C151.149,100.827 151.844,118.341 151.062,127.295C150.878,129.402 150.626,131.009 150.218,131.955C150.158,132.094 150.096,132.215 150.028,132.314L150.012,132.335Z"/>
        </g>
    </g>
    <g transform="matrix(-0.196514,1.357,-1.357,-0.196514,351.096,-13.6374)">
        <g transform="matrix(1,0,0,1,1.08696,-6.95652)">
            <path d="M133.287,66.522C133.287,66.522 134.02,68.544 134.621,72.174C134.889,73.793 135.019,75.698 135.168,77.826C136.323,94.312 137.136,123.043 137.136,123.043C137.136,123.544 137.543,123.951 138.043,123.951C138.544,123.951 138.951,123.544 138.951,123.043C138.951,123.043 139.764,94.312 140.919,77.826C141.068,75.698 141.198,73.793 141.466,72.174C142.067,68.544 142.8,66.522 142.8,66.522C142.8,63.897 140.669,61.765 138.043,61.765C135.418,61.765 133.287,63.897 133.287,66.522Z"/>
        </g>
        <g transform="matrix(1.17537,0,0,1.17537,-24.3999,-11.9222)">
            <path d="M139.13,42.296C136.508,42.083 134.098,43.048 132.245,44.636C130.298,46.304 129.13,48.766 128.929,51.522C128.763,54.39 129.861,57.026 131.66,58.992C133.504,61.008 136.187,62.193 139.13,62.285C142.081,62.218 144.78,61.041 146.639,59.03C148.459,57.063 149.56,54.406 149.399,51.522C149.186,48.75 148.014,46.272 146.047,44.605C144.179,43.022 141.76,42.064 139.13,42.296L139.13,42.296ZM139.13,44.661C140.956,44.822 142.487,45.769 143.587,47.066C144.597,48.258 145.078,49.842 144.949,51.522C144.862,53.083 144.06,54.401 142.995,55.386C141.98,56.324 140.62,56.879 139.13,56.845C137.633,56.892 136.253,56.362 135.228,55.424C134.146,54.434 133.336,53.1 133.245,51.522C133.121,49.827 133.618,48.232 134.643,47.035C135.752,45.741 137.3,44.81 139.13,44.661L139.13,44.661Z"/>
        </g>
        <g transform="matrix(0.729313,0,0,0.729313,29.7335,18.6465)">
            <path d="M150,133.353C144.584,133.353 149.078,72.784 140.693,59.807C131.075,44.921 134.357,41.119 134.357,41.119C134.357,41.119 144.546,51.508 150,51.693C155.454,51.879 165.622,41.119 165.622,41.119C165.622,41.119 169.59,43.422 159.272,59.807C148.304,77.224 155.416,133.353 150,133.353Z"/>
            <path d="M150,133.353C144.584,133.353 149.078,72.784 140.693,59.807C131.075,44.921 134.357,41.119 134.357,41.119C134.357,41.119 144.546,51.508 150,51.693C155.454,51.879 165.622,41.119 165.622,41.119C165.622,41.119 169.59,43.422 159.272,59.807C148.304,77.224 155.416,133.353 150,133.353ZM134.8,42.858C136.563,44.547 140.171,47.844 143.713,50.113C145.963,51.554 148.203,52.566 149.968,52.626C151.75,52.686 154.013,51.724 156.281,50.278C159.938,47.945 163.663,44.406 165.357,42.719C165.425,43.093 165.46,43.591 165.389,44.213C165.099,46.773 163.516,51.316 158.483,59.31C154.913,64.978 153.188,74.668 152.364,85.239C151.149,100.827 151.844,118.341 151.062,127.295C150.878,129.402 150.626,131.009 150.218,131.955C150.158,132.094 150.096,132.215 150.028,132.314L150.012,132.335C149.931,132.223 149.808,132.04 149.732,131.868C149.279,130.844 148.953,129.106 148.684,126.84C147.36,115.695 147.715,92.34 145.746,75.769C144.881,68.488 143.54,62.494 141.477,59.3C136.787,52.041 135.215,47.497 134.843,44.755C134.736,43.969 134.746,43.338 134.8,42.858Z"/>
        </g>
    </g>
    <g transform="matrix(0.568172,1.24789,-1.24789,0.568172,230.735,-96.3709)">
        <g transform="matrix(1,0,0,1,1.08696,-6.95652)">
            <path d="M133.287,66.522C133.287,66.522 134.02,68.544 134.621,72.174C134.889,73.793 135.019,75.698 135.168,77.826C136.323,94.312 137.136,123.043 137.136,123.043C137.136,123.544 137.543,123.951 138.043,123.951C138.544,123.951 138.951,123.544 138.951,123.043C138.951,123.043 139.764,94.312 140.919,77.826C141.068,75.698 141.198,73.793 141.466,72.174C142.067,68.544 142.8,66.522 142.8,66.522C142.8,63.897 140.669,61.765 138.043,61.765C135.418,61.765 133.287,63.897 133.287,66.522Z"/>
        </g>
        <g transform="matrix(1.17537,0,0,1.17537,-24.3999,-11.9222)">
            <path d="M139.13,42.296C136.508,42.083 134.098,43.048 132.245,44.636C130.298,46.304 129.13,48.766 128.929,51.522C128.763,54.39 129.861,57.026 131.66,58.992C133.504,61.008 136.187,62.193 139.13,62.285C142.081,62.218 144.78,61.041 146.639,59.03C148.459,57.063 149.56,54.406 149.399,51.522C149.186,48.75 148.014,46.272 146.047,44.605C144.179,43.022 141.76,42.064 139.13,42.296ZM139.13,44.661C140.956,44.822 142.487,45.769 143.587,47.066C144.597,48.258 145.078,49.842 144.949,51.522C144.862,53.083 144.06,54.401 142.995,55.386C141.98,56.324 140.62,56.879 139.13,56.845C137.633,56.892 136.253,56.362 135.228,55.424C134.146,54.434 133.336,53.1 133.245,51.522C133.121,49.827 133.618,48.232 134.643,47.035C135.752,45.741 137.3,44.81 139.13,44.661Z"/>
        </g>
        <g transform="matrix(0.729313,0,0,0.729313,29.7335,18.6465)">
            <path d="M150,133.353C144.584,133.353 149.078,72.784 140.693,59.807C131.075,44.921 134.357,41.119 134.357,41.119C134.357,41.119 144.546,51.508 150,51.693C155.454,51.879 165.622,41.119 165.622,41.119C165.622,41.119 169.59,43.422 159.272,59.807C148.304,77.224 155.416,133.353 150,133.353Z"/>
            <path d="M150,133.353C144.584,133.353 149.078,72.784 140.693,59.807C131.075,44.921 134.357,41.119 134.357,41.119C134.357,41.119 144.546,51.508 150,51.693C155.454,51.879 165.622,41.119 165.622,41.119C165.622,41.119 169.59,43.422 159.272,59.807C148.304,77.224 155.416,133.353 150,133.353ZM134.8,42.858C136.563,44.547 140.171,47.844 143.713,50.113C145.963,51.554 148.203,52.566 149.968,52.626C151.75,52.686 154.013,51.724 156.281,50.278C159.938,47.945 163.663,44.406 165.357,42.719C165.425,43.093 165.46,43.591 165.389,44.213C165.099,46.773 163.516,51.316 158.483,59.31C154.913,64.978 153.188,74.668 152.364,85.239C151.149,100.827 151.844,118.341 151.062,127.295C150.878,129.402 150.626,131.009 150.218,131.955C150.158,132.094 150.096,132.215 150.028,132.314L150.012,132.335C149.931,132.223 149.808,132.04 149.732,131.868C149.279,130.844 148.953,129.106 148.684,126.84C147.36,115.695 147.715,92.34 145.746,75.769C144.881,68.488 143.54,62.494 141.477,59.3C136.787,52.041 135.215,47.497 134.843,44.755C134.736,43.969 134.746,43.338 134.8,42.858Z"/>
        </g>
    </g>
    <g transform="matrix(1.15255,0.742765,-0.742765,1.15255,84.752,-100.917)">
        <g transform="matrix(1,0,0,1,1.08696,-6.95652)">
            <path d="M133.287,66.522C133.287,66.522 134.02,68.544 134.621,72.174C134.889,73.793 135.019,75.698 135.168,77.826C136.323,94.312 137.136,123.043 137.136,123.043C137.136,123.544 137.543,123.951 138.043,123.951C138.544,123.951 138.951,123.544 138.951,123.043C138.951,123.043 139.764,94.312 140.919,77.826C141.068,75.698 141.198,73.793 141.466,72.174C142.067,68.544 142.8,66.522 142.8,66.522C142.8,63.897 140.669,61.765 138.043,61.765C135.418,61.765 133.287,63.897 133.287,66.522Z"/>
        </g>
        <g transform="matrix(1.17537,0,0,1.17537,-24.3999,-11.9222)">
            <path d="M139.13,42.296C136.508,42.083 134.098,43.048 132.245,44.636C130.298,46.304 129.13,48.766 128.929,51.522C128.763,54.39 129.861,57.026 131.66,58.992C133.504,61.008 136.187,62.193 139.13,62.285C142.081,62.218 144.78,61.041 146.639,59.03C148.459,57.063 149.56,54.406 149.399,51.522C149.186,48.75 148.014,46.272 146.047,44.605C144.179,43.022 141.76,42.064 139.13,42.296ZM139.13,44.661C140.956,44.822 142.487,45.769 143.587,47.066C144.597,48.258 145.078,49.842 144.949,51.522C144.862,53.083 144.06,54.401 142.995,55.386C141.98,56.324 140.62,56.879 139.13,56.845C137.633,56.892 136.253,56.362 135.228,55.424C134.146,54.434 133.336,53.1 133.245,51.522C133.121,49.827 133.618,48.232 134.643,47.035C135.752,45.741 137.3,44.81 139.13,44.661Z"/>
        </g>
        <g transform="matrix(0.729313,0,0,0.729313,29.7335,18.6465)">
            <path d="M150,133.353C144.584,133.353 149.078,72.784 140.693,59.807C131.075,44.921 134.357,41.119 134.357,41.119C134.357,41.119 144.546,51.508 150,51.693C155.454,51.879 165.622,41.119 165.622,41.119C165.622,41.119 169.59,43.422 159.272,59.807C148.304,77.224 155.416,133.353 150,133.353Z"/>
            <path d="M150,133.353C144.584,133.353 149.078,72.784 140.693,59.807C131.075,44.921 134.357,41.119 134.357,41.119C134.357,41.119 144.546,51.508 150,51.693C155.454,51.879 165.622,41.119 165.622,41.119C165.622,41.119 169.59,43.422 159.272,59.807C148.304,77.224 155.416,133.353 150,133.353ZM134.8,42.858C136.563,44.547 140.171,47.844 143.713,50.113C145.963,51.554 148.203,52.566 149.968,52.626C151.75,52.686 154.013,51.724 156.281,50.278C159.938,47.945 163.663,44.406 165.357,42.719C165.425,43.093 165.46,43.591 165.389,44.213C165.099,46.773 163.516,51.316 158.483,59.31C154.913,64.978 153.188,74.668 152.364,85.239C151.149,100.827 151.844,118.341 151.062,127.295C150.878,129.402 150.626,131.009 150.218,131.955C150.158,132.094 150.096,132.215 150.028,132.314L150.012,132.335C149.931,132.223 149.808,132.04 149.732,131.868C149.279,130.844 148.953,129.106 148.684,126.84C147.36,115.695 147.715,92.34 145.746,75.769C144.881,68.488 143.54,62.494 141.477,59.3C136.787,52.041 135.215,47.497 134.843,44.755C134.736,43.969 134.746,43.338 134.8,42.858Z"/>
        </g>
    </g>
</svg>
