<?xml version="1.0" encoding="UTF-8" standalone="no"?>
<!DOCTYPE svg PUBLIC "-//W3C//DTD SVG 1.1//EN" "http://www.w3.org/Graphics/SVG/1.1/DTD/svg11.dtd">
<svg width="100%" height="100%" viewBox="0 0 300 300" version="1.1" xmlns="http://www.w3.org/2000/svg" xmlns:xlink="http://www.w3.org/1999/xlink" xml:space="preserve" xmlns:serif="http://www.serif.com/" style="fill-rule:evenodd;clip-rule:evenodd;stroke-linejoin:round;stroke-miterlimit:2;">
    <g id="v" transform="matrix(0.820572,0,8.32667e-17,0.805575,7.09909,33.4836)">
        <g transform="matrix(1,0,0,1,63.398,0)">
            <path d="M158.601,104.895L194.03,125.35L194.03,166.259L158.601,186.713L123.173,166.259L123.173,125.35L158.601,104.895ZM158.601,116.915L183.764,131.443C183.764,131.443 183.764,160.166 183.764,160.166C183.764,160.166 158.601,174.693 158.601,174.693C158.601,174.693 133.439,160.166 133.439,160.166C133.439,160.166 133.439,131.443 133.439,131.443L158.601,116.915Z"/>
        </g>
        <g transform="matrix(1,0,0,1,32.5252,-52.1367)">
            <path d="M158.601,104.895L194.03,125.35L194.03,166.259L158.601,186.713L123.173,166.259L123.173,125.35L158.601,104.895ZM158.601,116.915L183.764,131.443C183.764,131.443 183.764,160.166 183.764,160.166C183.764,160.166 158.601,174.693 158.601,174.693C158.601,174.693 133.439,160.166 133.439,160.166C133.439,160.166 133.439,131.443 133.439,131.443L158.601,116.915Z"/>
        </g>
        <g transform="matrix(1,0,0,1,62.9917,-104.687)">
            <path d="M158.601,104.895L194.03,125.35L194.03,166.259L158.601,186.713L123.173,166.259L123.173,125.35L158.601,104.895ZM158.601,116.915L183.764,131.443C183.764,131.443 183.764,160.166 183.764,160.166C183.764,160.166 158.601,174.693 158.601,174.693C158.601,174.693 133.439,160.166 133.439,160.166C133.439,160.166 133.439,131.443 133.439,131.443L158.601,116.915Z"/>
        </g>
        <g transform="matrix(1,0,0,1,2.83562,0)">
            <path d="M158.601,104.895L194.03,125.35L194.03,166.259L158.601,186.713L123.173,166.259L123.173,125.35L158.601,104.895ZM158.601,116.915L183.764,131.443C183.764,131.443 183.764,160.166 183.764,160.166C183.764,160.166 158.601,174.693 158.601,174.693C158.601,174.693 133.439,160.166 133.439,160.166C133.439,160.166 133.439,131.443 133.439,131.443L158.601,116.915Z"/>
        </g>
        <g transform="matrix(1,0,0,1,32.531,52.0397)">
            <path d="M158.601,104.895L194.03,125.35L194.03,166.259L158.601,186.713L123.173,166.259L123.173,125.35L158.601,104.895ZM158.601,116.915L183.764,131.443C183.764,131.443 183.764,160.166 183.764,160.166C183.764,160.166 158.601,174.693 158.601,174.693C158.601,174.693 133.439,160.166 133.439,160.166C133.439,160.166 133.439,131.443 133.439,131.443L158.601,116.915Z"/>
        </g>
        <g transform="matrix(1,0,0,1,1.8207,104.673)">
            <path d="M158.601,104.895L194.03,125.35L194.03,166.259L158.601,186.713L123.173,166.259L123.173,125.35L158.601,104.895ZM158.601,116.915L183.764,131.443C183.764,131.443 183.764,160.166 183.764,160.166C183.764,160.166 158.601,174.693 158.601,174.693C158.601,174.693 133.439,160.166 133.439,160.166C133.439,160.166 133.439,131.443 133.439,131.443L158.601,116.915Z"/>
        </g>
        <g transform="matrix(1,0,0,1,-28.0371,-52.1367)">
            <path d="M158.601,104.895L194.03,125.35L194.03,166.259L158.601,186.713L123.173,166.259L123.173,125.35L158.601,104.895ZM158.601,116.915L183.764,131.443C183.764,131.443 183.764,160.166 183.764,160.166C183.764,160.166 158.601,174.693 158.601,174.693C158.601,174.693 133.439,160.166 133.439,160.166C133.439,160.166 133.439,131.443 133.439,131.443L158.601,116.915Z"/>
        </g>
        <g transform="matrix(1,0,0,1,2.4294,-104.687)">
            <path d="M158.601,104.895L194.03,125.35L194.03,166.259L158.601,186.713L123.173,166.259L123.173,125.35L158.601,104.895ZM158.601,116.915L183.764,131.443C183.764,131.443 183.764,160.166 183.764,160.166C183.764,160.166 158.601,174.693 158.601,174.693C158.601,174.693 133.439,160.166 133.439,160.166C133.439,160.166 133.439,131.443 133.439,131.443L158.601,116.915Z"/>
        </g>
        <g transform="matrix(1,0,0,1,-57.7267,0)">
            <path d="M158.601,104.895L194.03,125.35L194.03,166.259L158.601,186.713L123.173,166.259L123.173,125.35L158.601,104.895ZM158.601,116.915L183.764,131.443C183.764,131.443 183.764,160.166 183.764,160.166C183.764,160.166 158.601,174.693 158.601,174.693C158.601,174.693 133.439,160.166 133.439,160.166C133.439,160.166 133.439,131.443 133.439,131.443L158.601,116.915Z"/>
        </g>
        <g transform="matrix(1,0,0,1,-28.0313,52.0397)">
            <path d="M158.601,104.895L194.03,125.35L194.03,166.259L158.601,186.713L123.173,166.259L123.173,125.35L158.601,104.895ZM158.601,116.915L183.764,131.443C183.764,131.443 183.764,160.166 183.764,160.166C183.764,160.166 158.601,174.693 158.601,174.693C158.601,174.693 133.439,160.166 133.439,160.166C133.439,160.166 133.439,131.443 133.439,131.443L158.601,116.915Z"/>
        </g>
        <g transform="matrix(1,0,0,1,-58.7416,104.673)">
            <path d="M158.601,104.895L194.03,125.35L194.03,166.259L158.601,186.713L123.173,166.259L123.173,125.35L158.601,104.895ZM158.601,116.915L183.764,131.443C183.764,131.443 183.764,160.166 183.764,160.166C183.764,160.166 158.601,174.693 158.601,174.693C158.601,174.693 133.439,160.166 133.439,160.166C133.439,160.166 133.439,131.443 133.439,131.443L158.601,116.915Z"/>
        </g>
        <g transform="matrix(1,0,0,1,-88.5995,-52.1367)">
            <path d="M158.601,104.895L194.03,125.35L194.03,166.259L158.601,186.713L123.173,166.259L123.173,125.35L158.601,104.895ZM158.601,116.915L183.764,131.443C183.764,131.443 183.764,160.166 183.764,160.166C183.764,160.166 158.601,174.693 158.601,174.693C158.601,174.693 133.439,160.166 133.439,160.166C133.439,160.166 133.439,131.443 133.439,131.443L158.601,116.915Z"/>
        </g>
        <g transform="matrix(1,0,0,1,124.096,-0.406196)">
            <path d="M158.601,104.895L194.03,125.35L194.03,166.259L158.601,186.713L123.173,166.259L123.173,125.35L158.601,104.895ZM158.601,116.915L183.764,131.443C183.764,131.443 183.764,160.166 183.764,160.166C183.764,160.166 158.601,174.693 158.601,174.693C158.601,174.693 133.439,160.166 133.439,160.166C133.439,160.166 133.439,131.443 133.439,131.443L158.601,116.915Z"/>
        </g>
        <g transform="matrix(1,0,0,1,93.2232,-52.5429)">
            <path d="M158.601,104.895L194.03,125.35L194.03,166.259L158.601,186.713L123.173,166.259L123.173,125.35L158.601,104.895ZM158.601,116.915L183.764,131.443C183.764,131.443 183.764,160.166 183.764,160.166C183.764,160.166 158.601,174.693 158.601,174.693C158.601,174.693 133.439,160.166 133.439,160.166C133.439,160.166 133.439,131.443 133.439,131.443L158.601,116.915Z"/>
        </g>
        <g transform="matrix(1,0,0,1,123.69,-105.093)">
            <path d="M158.601,104.895L194.03,125.35L194.03,166.259L158.601,186.713L123.173,166.259L123.173,125.35L158.601,104.895ZM158.601,116.915L183.764,131.443C183.764,131.443 183.764,160.166 183.764,160.166C183.764,160.166 158.601,174.693 158.601,174.693C158.601,174.693 133.439,160.166 133.439,160.166C133.439,160.166 133.439,131.443 133.439,131.443L158.601,116.915Z"/>
        </g>
    </g>
</svg>
