<?xml version="1.0" encoding="UTF-8" standalone="no"?>
<!DOCTYPE svg PUBLIC "-//W3C//DTD SVG 1.1//EN" "http://www.w3.org/Graphics/SVG/1.1/DTD/svg11.dtd">
<svg width="100%" height="100%" viewBox="0 0 300 300" version="1.1" xmlns="http://www.w3.org/2000/svg" xmlns:xlink="http://www.w3.org/1999/xlink" xml:space="preserve" xmlns:serif="http://www.serif.com/" style="fill-rule:evenodd;clip-rule:evenodd;stroke-linecap:round;stroke-linejoin:round;stroke-miterlimit:1.5;">
    <g transform="matrix(0.525462,0,0,0.525462,84.5181,-3.90186)">
        <path d="M233.077,52.448C233.077,52.448 199.441,59.51 186.923,66.294C175.351,72.565 163.287,83.427 157.972,93.147C152.918,102.39 147.807,117.022 155.035,124.615C162.788,132.761 179.631,124.567 189.86,118.741C200.42,112.727 211.189,99.58 218.392,88.531C225.483,77.653 233.077,52.448 233.077,52.448Z" style="fill:none;stroke:black;stroke-width:12.01px;"/>
    </g>
    <g transform="matrix(0.525462,0,0,0.525462,145.777,3.23101)">
        <path d="M233.077,52.448C233.077,52.448 199.441,59.51 186.923,66.294C175.351,72.565 163.287,83.427 157.972,93.147C152.918,102.39 147.807,117.022 155.035,124.615C162.788,132.761 179.631,124.567 189.86,118.741C200.42,112.727 211.189,99.58 218.392,88.531C225.483,77.653 233.077,52.448 233.077,52.448Z" style="fill:none;stroke:black;stroke-width:12.01px;"/>
    </g>
    <g transform="matrix(0.525462,0,0,0.525462,82.0006,44.3499)">
        <path d="M233.077,52.448C233.077,52.448 199.441,59.51 186.923,66.294C175.351,72.565 163.287,83.427 157.972,93.147C152.918,102.39 147.807,117.022 155.035,124.615C162.788,132.761 179.631,124.567 189.86,118.741C200.42,112.727 211.189,99.58 218.392,88.531C225.483,77.653 233.077,52.448 233.077,52.448Z" style="fill:none;stroke:black;stroke-width:12.01px;"/>
    </g>
    <g transform="matrix(0.525462,0,0,0.525462,131.511,53.1611)">
        <path d="M233.077,52.448C233.077,52.448 199.441,59.51 186.923,66.294C175.351,72.565 163.287,83.427 157.972,93.147C152.918,102.39 147.807,117.022 155.035,124.615C162.788,132.761 179.631,124.567 189.86,118.741C200.42,112.727 211.189,99.58 218.392,88.531C225.483,77.653 233.077,52.448 233.077,52.448Z" style="fill:none;stroke:black;stroke-width:12.01px;"/>
    </g>
    <g transform="matrix(0.525462,0,0,0.525462,55.9866,105.189)">
        <path d="M233.077,52.448C233.077,52.448 199.441,59.51 186.923,66.294C175.351,72.565 163.287,83.427 157.972,93.147C152.918,102.39 147.807,117.022 155.035,124.615C162.788,132.761 179.631,124.567 189.86,118.741C200.42,112.727 211.189,99.58 218.392,88.531C225.483,77.653 233.077,52.448 233.077,52.448Z" style="fill:none;stroke:black;stroke-width:12.01px;"/>
    </g>
    <g transform="matrix(0.525462,0,0,0.525462,159.203,95.1191)">
        <path d="M233.077,52.448C233.077,52.448 199.441,59.51 186.923,66.294C175.351,72.565 163.287,83.427 157.972,93.147C152.918,102.39 147.807,117.022 155.035,124.615C162.788,132.761 179.631,124.567 189.86,118.741C200.42,112.727 211.189,99.58 218.392,88.531C225.483,77.653 233.077,52.448 233.077,52.448Z" style="fill:none;stroke:black;stroke-width:12.01px;"/>
    </g>
    <g transform="matrix(0.525462,0,0,0.525462,110.112,162.672)">
        <path d="M233.077,52.448C233.077,52.448 199.441,59.51 186.923,66.294C175.351,72.565 163.287,83.427 157.972,93.147C152.918,102.39 147.807,117.022 155.035,124.615C162.788,132.761 179.631,124.567 189.86,118.741C200.42,112.727 211.189,99.58 218.392,88.531C225.483,77.653 233.077,52.448 233.077,52.448Z" style="fill:none;stroke:black;stroke-width:12.01px;"/>
    </g>
    <g transform="matrix(0.525462,0,0,0.525462,158.364,154.28)">
        <path d="M233.077,52.448C233.077,52.448 199.441,59.51 186.923,66.294C175.351,72.565 163.287,83.427 157.972,93.147C152.918,102.39 147.807,117.022 155.035,124.615C162.788,132.761 179.631,124.567 189.86,118.741C200.42,112.727 211.189,99.58 218.392,88.531C225.483,77.653 233.077,52.448 233.077,52.448Z" style="fill:none;stroke:black;stroke-width:12.01px;"/>
    </g>
    <g transform="matrix(0.525462,0,0,0.525462,100.882,208.406)">
        <path d="M233.077,52.448C233.077,52.448 199.441,59.51 186.923,66.294C175.351,72.565 163.287,83.427 157.972,93.147C152.918,102.39 147.807,117.022 155.035,124.615C162.788,132.761 179.631,124.567 189.86,118.741C200.42,112.727 211.189,99.58 218.392,88.531C225.483,77.653 233.077,52.448 233.077,52.448Z" style="fill:none;stroke:black;stroke-width:12.01px;"/>
    </g>
    <g transform="matrix(0.525462,0,0,0.525462,40.4621,204.21)">
        <path d="M233.077,52.448C233.077,52.448 199.441,59.51 186.923,66.294C175.351,72.565 163.287,83.427 157.972,93.147C152.918,102.39 147.807,117.022 155.035,124.615C162.788,132.761 179.631,124.567 189.86,118.741C200.42,112.727 211.189,99.58 218.392,88.531C225.483,77.653 233.077,52.448 233.077,52.448Z" style="fill:none;stroke:black;stroke-width:12.01px;"/>
    </g>
    <g transform="matrix(0.525462,0,0,0.525462,-18.2791,210.084)">
        <path d="M233.077,52.448C233.077,52.448 199.441,59.51 186.923,66.294C175.351,72.565 163.287,83.427 157.972,93.147C152.918,102.39 147.807,117.022 155.035,124.615C162.788,132.761 179.631,124.567 189.86,118.741C200.42,112.727 211.189,99.58 218.392,88.531C225.483,77.653 233.077,52.448 233.077,52.448Z" style="fill:none;stroke:black;stroke-width:12.01px;"/>
    </g>
    <g transform="matrix(0.525462,0,0,0.525462,-53.9435,107.287)">
        <path d="M233.077,52.448C233.077,52.448 199.441,59.51 186.923,66.294C175.351,72.565 163.287,83.427 157.972,93.147C152.918,102.39 147.807,117.022 155.035,124.615C162.788,132.761 179.631,124.567 189.86,118.741C200.42,112.727 211.189,99.58 218.392,88.531C225.483,77.653 233.077,52.448 233.077,52.448Z" style="fill:none;stroke:black;stroke-width:12.01px;"/>
    </g>
    <g transform="matrix(0.525462,0,0,0.525462,-48.0693,164.769)">
        <path d="M233.077,52.448C233.077,52.448 199.441,59.51 186.923,66.294C175.351,72.565 163.287,83.427 157.972,93.147C152.918,102.39 147.807,117.022 155.035,124.615C162.788,132.761 179.631,124.567 189.86,118.741C200.42,112.727 211.189,99.58 218.392,88.531C225.483,77.653 233.077,52.448 233.077,52.448Z" style="fill:none;stroke:black;stroke-width:12.01px;"/>
    </g>
    <g transform="matrix(0.525462,0,0,0.525462,-57.7197,17.0772)">
        <path d="M233.077,52.448C233.077,52.448 199.441,59.51 186.923,66.294C175.351,72.565 163.287,83.427 157.972,93.147C152.918,102.39 147.807,117.022 155.035,124.615C162.788,132.761 179.631,124.567 189.86,118.741C200.42,112.727 211.189,99.58 218.392,88.531C225.483,77.653 233.077,52.448 233.077,52.448Z" style="fill:none;stroke:black;stroke-width:12.01px;"/>
    </g>
    <g transform="matrix(0.525462,0,0,0.525462,19.9027,68.6856)">
        <path d="M233.077,52.448C233.077,52.448 199.441,59.51 186.923,66.294C175.351,72.565 163.287,83.427 157.972,93.147C152.918,102.39 147.807,117.022 155.035,124.615C162.788,132.761 179.631,124.567 189.86,118.741C200.42,112.727 211.189,99.58 218.392,88.531C225.483,77.653 233.077,52.448 233.077,52.448Z" style="fill:none;stroke:black;stroke-width:12.01px;"/>
    </g>
    <g transform="matrix(0.525462,0,0,0.525462,-1.4959,116.518)">
        <path d="M233.077,52.448C233.077,52.448 199.441,59.51 186.923,66.294C175.351,72.565 163.287,83.427 157.972,93.147C152.918,102.39 147.807,117.022 155.035,124.615C162.788,132.761 179.631,124.567 189.86,118.741C200.42,112.727 211.189,99.58 218.392,88.531C225.483,77.653 233.077,52.448 233.077,52.448Z" style="fill:none;stroke:black;stroke-width:12.01px;"/>
    </g>
    <g transform="matrix(0.525462,0,0,0.525462,-1.07631,164.769)">
        <path d="M233.077,52.448C233.077,52.448 199.441,59.51 186.923,66.294C175.351,72.565 163.287,83.427 157.972,93.147C152.918,102.39 147.807,117.022 155.035,124.615C162.788,132.761 179.631,124.567 189.86,118.741C200.42,112.727 211.189,99.58 218.392,88.531C225.483,77.653 233.077,52.448 233.077,52.448Z" style="fill:none;stroke:black;stroke-width:12.01px;"/>
    </g>
    <g transform="matrix(0.525462,0,0,0.525462,52.63,156.797)">
        <path d="M233.077,52.448C233.077,52.448 199.441,59.51 186.923,66.294C175.351,72.565 163.287,83.427 157.972,93.147C152.918,102.39 147.807,117.022 155.035,124.615C162.788,132.761 179.631,124.567 189.86,118.741C200.42,112.727 211.189,99.58 218.392,88.531C225.483,77.653 233.077,52.448 233.077,52.448Z" style="fill:none;stroke:black;stroke-width:12.01px;"/>
    </g>
    <g transform="matrix(0.525462,0,0,0.525462,106.336,110.224)">
        <path d="M233.077,52.448C233.077,52.448 199.441,59.51 186.923,66.294C175.351,72.565 163.287,83.427 157.972,93.147C152.918,102.39 147.807,117.022 155.035,124.615C162.788,132.761 179.631,124.567 189.86,118.741C200.42,112.727 211.189,99.58 218.392,88.531C225.483,77.653 233.077,52.448 233.077,52.448Z" style="fill:none;stroke:black;stroke-width:12.01px;"/>
    </g>
    <g transform="matrix(0.525462,0,0,0.525462,-29.1882,59.4548)">
        <path d="M233.077,52.448C233.077,52.448 199.441,59.51 186.923,66.294C175.351,72.565 163.287,83.427 157.972,93.147C152.918,102.39 147.807,117.022 155.035,124.615C162.788,132.761 179.631,124.567 189.86,118.741C200.42,112.727 211.189,99.58 218.392,88.531C225.483,77.653 233.077,52.448 233.077,52.448Z" style="fill:none;stroke:black;stroke-width:12.01px;"/>
    </g>
    <g transform="matrix(0.525462,0,0,0.525462,-9.04836,2.39186)">
        <path d="M233.077,52.448C233.077,52.448 199.441,59.51 186.923,66.294C175.351,72.565 163.287,83.427 157.972,93.147C152.918,102.39 147.807,117.022 155.035,124.615C162.788,132.761 179.631,124.567 189.86,118.741C200.42,112.727 211.189,99.58 218.392,88.531C225.483,77.653 233.077,52.448 233.077,52.448Z" style="fill:none;stroke:black;stroke-width:12.01px;"/>
    </g>
    <g transform="matrix(0.525462,0,0,0.525462,36.2663,9.10515)">
        <path d="M233.077,52.448C233.077,52.448 199.441,59.51 186.923,66.294C175.351,72.565 163.287,83.427 157.972,93.147C152.918,102.39 147.807,117.022 155.035,124.615C162.788,132.761 179.631,124.567 189.86,118.741C200.42,112.727 211.189,99.58 218.392,88.531C225.483,77.653 233.077,52.448 233.077,52.448Z" style="fill:none;stroke:black;stroke-width:12.01px;"/>
    </g>
</svg>
