<?xml version="1.0" encoding="UTF-8" standalone="no"?>
<!DOCTYPE svg PUBLIC "-//W3C//DTD SVG 1.1//EN" "http://www.w3.org/Graphics/SVG/1.1/DTD/svg11.dtd">
<svg width="100%" height="100%" viewBox="0 0 300 300" version="1.1" xmlns="http://www.w3.org/2000/svg" xmlns:xlink="http://www.w3.org/1999/xlink" xml:space="preserve" xmlns:serif="http://www.serif.com/" style="fill-rule:evenodd;clip-rule:evenodd;stroke-linejoin:round;stroke-miterlimit:2;">
    <g transform="matrix(1,0,0,1,7.78256,1.52174)">
        <path d="M45,268.696C45,268.696 46.832,256.826 47.683,240.301C49.049,213.78 51.249,175.268 53.436,154.597C56.537,125.297 67.609,67.391 67.609,67.391L94.826,43.043C94.826,43.043 78.522,67.029 69.174,131.739C66.891,147.545 63.145,206.956 63.285,230.213C63.458,258.938 65.261,268.696 65.261,268.696L45,268.696Z"/>
        <path d="M45,268.696C45,268.696 46.832,256.826 47.683,240.301C49.049,213.78 51.249,175.268 53.436,154.597C56.537,125.297 67.609,67.391 67.609,67.391L94.826,43.043C94.826,43.043 78.522,67.029 69.174,131.739C66.891,147.545 63.145,206.956 63.285,230.213C63.458,258.938 65.261,268.696 65.261,268.696L45,268.696ZM51.833,262.696C52.081,260.566 52.357,258.002 52.628,255.084C53.017,250.908 53.398,246.003 53.675,240.61C54.452,225.537 55.498,206.583 56.658,189.246C57.531,176.198 58.467,164.07 59.403,155.229C60.41,145.712 62.269,133.15 64.308,120.562C67.826,98.855 71.887,77.072 73.125,70.508C73.125,70.507 78.076,66.078 78.076,66.078C77.077,68.98 76.053,72.145 75.02,75.585C70.91,89.275 66.62,107.45 63.236,130.881C62.029,139.233 60.409,159.633 59.167,180.556C58.037,199.595 57.218,219.068 57.285,230.249C57.345,240.158 57.597,247.836 57.902,253.653C58.097,257.369 58.316,260.353 58.523,262.696L51.833,262.696Z"/>
    </g>
    <g transform="matrix(1,0,0,1.09634,38.8695,-24.3642)">
        <path d="M45,268.696C45,268.696 46.832,256.826 47.683,240.301C49.049,213.78 51.249,175.268 53.436,154.597C56.537,125.297 67.609,67.391 67.609,67.391L94.826,43.043C94.826,43.043 78.522,67.029 69.174,131.739C66.891,147.545 63.145,206.956 63.285,230.213C63.458,258.938 65.261,268.696 65.261,268.696L45,268.696Z"/>
        <path d="M45,268.696C45,268.696 46.832,256.826 47.683,240.301C49.049,213.78 51.249,175.268 53.436,154.597C56.537,125.297 67.609,67.391 67.609,67.391L94.826,43.043C94.826,43.043 78.522,67.029 69.174,131.739C66.891,147.545 63.145,206.956 63.285,230.213C63.458,258.938 65.261,268.696 65.261,268.696L45,268.696ZM51.764,263.223C52.03,260.98 52.334,258.198 52.633,254.986C53.021,250.823 53.4,245.933 53.677,240.558C54.453,225.482 55.499,206.525 56.66,189.185C57.534,176.12 58.472,163.976 59.409,155.123C60.417,145.596 62.276,133.022 64.318,120.421C67.886,98.401 72.014,76.299 73.191,70.064C73.191,70.063 78.353,65.445 78.353,65.445C77.236,68.644 76.085,72.175 74.923,76.055C70.84,89.689 66.586,107.759 63.225,131.024C62.021,139.363 60.404,159.734 59.165,180.626C58.037,199.637 57.218,219.079 57.285,230.243C57.345,240.128 57.596,247.789 57.9,253.594C58.113,257.638 58.352,260.808 58.575,263.223L51.764,263.223Z"/>
    </g>
    <g transform="matrix(1,0,0,1.05588,69.1739,-13.4921)">
        <path d="M45,268.696C45,268.696 46.832,256.826 47.683,240.301C49.049,213.78 51.249,175.268 53.436,154.597C56.537,125.297 67.609,67.391 67.609,67.391L94.826,43.043C94.826,43.043 78.522,67.029 69.174,131.739C66.891,147.545 63.145,206.956 63.285,230.213C63.458,258.938 65.261,268.696 65.261,268.696L45,268.696Z"/>
        <path d="M45,268.696C45,268.696 46.832,256.826 47.683,240.301C49.049,213.78 51.249,175.268 53.436,154.597C56.537,125.297 67.609,67.391 67.609,67.391L94.826,43.043C94.826,43.043 78.522,67.029 69.174,131.739C66.891,147.545 63.145,206.956 63.285,230.213C63.458,258.938 65.261,268.696 65.261,268.696L45,268.696ZM51.791,263.013C52.051,260.813 52.343,258.118 52.631,255.024C53.019,250.856 53.399,245.96 53.676,240.578C54.453,225.503 55.499,206.548 56.659,189.208C57.533,176.15 58.47,164.013 59.406,155.164C60.414,145.641 62.273,133.072 64.314,120.476C67.862,98.582 71.963,76.608 73.165,70.238C73.165,70.237 78.244,65.694 78.244,65.694C77.173,68.778 76.072,72.166 74.961,75.872C70.867,89.528 66.599,107.639 63.229,130.969C62.024,139.313 60.406,159.695 59.166,180.599C58.037,199.62 57.218,219.074 57.285,230.246C57.345,240.14 57.596,247.807 57.901,253.617C58.106,257.528 58.338,260.625 58.554,263.013L51.791,263.013Z"/>
    </g>
    <g transform="matrix(1,0,0,0.988006,99.4782,4.74451)">
        <path d="M45,268.696C45,268.696 46.832,256.826 47.683,240.301C49.049,213.78 51.249,175.268 53.436,154.597C56.537,125.297 67.609,67.391 67.609,67.391L94.826,43.043C94.826,43.043 78.522,67.029 69.174,131.739C66.891,147.545 63.145,206.956 63.285,230.213C63.458,258.938 65.261,268.696 65.261,268.696L45,268.696Z"/>
        <path d="M45,268.696C45,268.696 46.832,256.826 47.683,240.301C49.049,213.78 51.249,175.268 53.436,154.597C56.537,125.297 67.609,67.391 67.609,67.391L94.826,43.043C94.826,43.043 78.522,67.029 69.174,131.739C66.891,147.545 63.145,206.956 63.285,230.213C63.458,258.938 65.261,268.696 65.261,268.696L45,268.696ZM51.842,262.623C52.088,260.51 52.36,257.976 52.628,255.099C53.017,250.921 53.397,246.013 53.675,240.618C54.452,225.545 55.497,206.592 56.657,189.255C57.53,176.21 58.467,164.084 59.402,155.244C60.409,145.729 62.267,133.169 64.307,120.582C67.818,98.917 71.87,77.177 73.116,70.571C73.116,70.57 78.037,66.167 78.037,66.167C77.055,69.026 76.049,72.139 75.034,75.518C70.92,89.216 66.625,107.405 63.237,130.861C62.03,139.214 60.409,159.618 59.167,180.545C58.037,199.589 57.218,219.066 57.285,230.25C57.345,240.162 57.597,247.843 57.902,253.662C58.095,257.334 58.311,260.292 58.516,262.623L51.842,262.623Z"/>
    </g>
    <g transform="matrix(1,0,0,1.05167,130.783,-12.3605)">
        <path d="M45,268.696C45,268.696 46.832,256.826 47.683,240.301C49.049,213.78 51.249,175.268 53.436,154.597C56.537,125.297 67.609,67.391 67.609,67.391L94.826,43.043C94.826,43.043 78.522,67.029 69.174,131.739C66.891,147.545 63.145,206.956 63.285,230.213C63.458,258.938 65.261,268.696 65.261,268.696L45,268.696Z"/>
        <path d="M45,268.696C45,268.696 46.832,256.826 47.683,240.301C49.049,213.78 51.249,175.268 53.436,154.597C56.537,125.297 67.609,67.391 67.609,67.391L94.826,43.043C94.826,43.043 78.522,67.029 69.174,131.739C66.891,147.545 63.145,206.956 63.285,230.213C63.458,258.938 65.261,268.696 65.261,268.696L45,268.696ZM51.794,262.99C52.053,260.795 52.344,258.109 52.631,255.028C53.019,250.86 53.399,245.963 53.676,240.58C54.453,225.505 55.499,206.55 56.659,189.211C57.532,176.154 58.47,164.017 59.406,155.168C60.414,145.646 62.273,133.077 64.314,120.482C67.859,98.601 71.957,76.641 73.162,70.257C73.162,70.256 78.232,65.721 78.232,65.721C77.166,68.793 76.071,72.164 74.965,75.852C70.87,89.511 66.601,107.626 63.23,130.963C62.024,139.307 60.406,159.691 59.166,180.596C58.037,199.619 57.218,219.074 57.285,230.246C57.345,240.141 57.596,247.809 57.901,253.62C58.106,257.517 58.336,260.606 58.552,262.99L51.794,262.99Z"/>
    </g>
    <g transform="matrix(1,0,0,1.01345,162.087,-2.09317)">
        <path d="M45,268.696C45,268.696 46.832,256.826 47.683,240.301C49.049,213.78 51.249,175.268 53.436,154.597C56.537,125.297 67.609,67.391 67.609,67.391L94.826,43.043C94.826,43.043 78.522,67.029 69.174,131.739C66.891,147.545 63.145,206.956 63.285,230.213C63.458,258.938 65.261,268.696 65.261,268.696L45,268.696Z"/>
        <path d="M45,268.696C45,268.696 46.832,256.826 47.683,240.301C49.049,213.78 51.249,175.268 53.436,154.597C56.537,125.297 67.609,67.391 67.609,67.391L94.826,43.043C94.826,43.043 78.522,67.029 69.174,131.739C66.891,147.545 63.145,206.956 63.285,230.213C63.458,258.938 65.261,268.696 65.261,268.696L45,268.696ZM51.822,262.775C52.073,260.628 52.354,258.03 52.629,255.069C53.018,250.895 53.398,245.992 53.676,240.602C54.452,225.528 55.498,206.574 56.658,189.237C57.531,176.186 58.468,164.056 59.404,155.212C60.411,145.694 62.27,133.13 64.31,120.54C67.835,98.787 71.906,76.956 73.135,70.44C73.135,70.439 78.119,65.981 78.119,65.981C77.101,68.93 76.058,72.151 75.005,75.658C70.899,89.34 66.615,107.498 63.234,130.904C62.028,139.253 60.408,159.648 59.167,180.567C58.037,199.601 57.218,219.069 57.285,230.249C57.345,240.153 57.597,247.829 57.902,253.644C58.1,257.408 58.321,260.421 58.531,262.775L51.822,262.775Z"/>
    </g>
</svg>
