<?xml version="1.0" encoding="UTF-8" standalone="no"?>
<!DOCTYPE svg PUBLIC "-//W3C//DTD SVG 1.1//EN" "http://www.w3.org/Graphics/SVG/1.1/DTD/svg11.dtd">
<svg width="100%" height="100%" viewBox="0 0 300 300" version="1.1" xmlns="http://www.w3.org/2000/svg" xmlns:xlink="http://www.w3.org/1999/xlink" xml:space="preserve" xmlns:serif="http://www.serif.com/" style="fill-rule:evenodd;clip-rule:evenodd;stroke-linejoin:round;stroke-miterlimit:2;">
    <g id="v" transform="matrix(0.815132,0,0,0.815132,34.8977,-8.97197)">
        <path d="M131.032,162.946C122.358,156.743 114.384,150.949 109.397,142.922C106.375,138.057 104.433,132.41 104.126,125.385C103.888,119.921 105.094,115.173 107.247,110.749C112.689,99.564 123.05,90.182 130.606,77.388C133.634,72.353 136.086,65.369 138.018,58.224C138.991,54.625 139.834,50.986 140.55,47.555C141.382,51.162 142.36,54.998 143.481,58.775C145.663,66.124 148.407,73.236 151.702,78.165C158.74,88.841 165.545,98.021 170.364,106.61C174.086,113.242 176.544,119.442 176.679,125.732C176.793,131.711 174.63,137.047 171.343,142.097C166.39,149.706 158.761,156.51 150.876,163.387C147.959,166.105 147.798,170.679 150.516,173.596C153.234,176.512 157.808,176.674 160.725,173.956C169.04,165.678 176.929,157.384 181.926,148.511C186.056,141.177 188.413,133.505 187.735,125.178C187.247,119.03 185.168,113.004 181.821,106.835C176.382,96.81 167.63,86.245 158.335,73.555C155.254,69.289 152.622,63.048 150.501,56.581C145.976,42.789 143.684,28.036 143.684,28.036C143.436,26.369 141.995,25.14 140.309,25.161C138.623,25.181 137.211,26.444 137.004,28.117C137.004,28.117 135.165,42.544 131.104,56.267C129.221,62.631 126.836,68.831 123.978,73.258C115.641,85.951 104.754,95.122 98.575,106.232C95.378,111.981 93.393,118.212 93.261,125.524C93.093,134.791 95.281,142.35 98.834,149.011C104.042,158.775 112.599,166.44 122.223,174.396C125.383,176.827 129.922,176.236 132.353,173.076C134.784,169.916 134.192,165.377 131.032,162.946Z"/>
    </g>
    <g id="v1" serif:id="v" transform="matrix(-0.659456,-0.479123,0.479123,-0.659456,140.283,367.852)">
        <path d="M131.032,162.946C122.358,156.743 114.384,150.949 109.397,142.922C106.375,138.057 104.433,132.41 104.126,125.385C103.888,119.921 105.094,115.173 107.247,110.749C112.689,99.564 123.05,90.182 130.606,77.388C133.634,72.353 136.086,65.369 138.018,58.224C138.991,54.625 139.834,50.986 140.55,47.555C141.382,51.161 142.359,54.998 143.481,58.775C145.663,66.124 148.407,73.236 151.702,78.165C158.74,88.841 165.545,98.021 170.364,106.61C174.086,113.242 176.544,119.442 176.679,125.732C176.793,131.711 174.63,137.047 171.343,142.097C166.39,149.706 158.761,156.51 150.876,163.387C147.959,166.105 147.798,170.679 150.516,173.596C153.234,176.512 157.808,176.674 160.725,173.956C169.04,165.678 176.929,157.384 181.926,148.511C186.056,141.177 188.413,133.505 187.735,125.178C187.247,119.03 185.168,113.004 181.821,106.835C176.382,96.81 167.63,86.245 158.335,73.555C155.254,69.289 152.622,63.048 150.501,56.581C145.976,42.789 143.684,28.036 143.684,28.036C143.436,26.369 141.995,25.14 140.309,25.161C138.623,25.181 137.211,26.444 137.004,28.117C137.004,28.117 135.165,42.544 131.104,56.267C129.221,62.631 126.836,68.831 123.978,73.258C115.641,85.951 104.754,95.122 98.575,106.232C95.378,111.981 93.393,118.212 93.261,125.524C93.093,134.791 95.281,142.35 98.834,149.011C104.042,158.775 112.599,166.44 122.223,174.396C125.383,176.827 129.922,176.236 132.353,173.076C134.784,169.916 134.192,165.377 131.032,162.946Z"/>
    </g>
    <g id="v2" serif:id="v" transform="matrix(0.659456,-0.479123,-0.479123,-0.659456,157.067,367.852)">
        <path d="M122.223,174.396C112.599,166.44 104.042,158.775 98.834,149.011C95.281,142.35 93.093,134.791 93.261,125.524C93.393,118.212 95.378,111.981 98.575,106.232C104.754,95.122 115.641,85.951 123.978,73.258C126.836,68.831 129.221,62.631 131.104,56.267C135.165,42.544 137.004,28.117 137.004,28.117C137.211,26.444 138.623,25.181 140.309,25.161C141.995,25.14 143.436,26.369 143.684,28.036C143.684,28.036 145.976,42.789 150.501,56.581C152.622,63.048 155.254,69.289 158.335,73.555C167.63,86.245 176.382,96.81 181.821,106.835C185.168,113.004 187.247,119.03 187.735,125.178C188.413,133.505 186.056,141.177 181.926,148.511C176.929,157.384 169.04,165.678 160.725,173.956C157.808,176.674 153.234,176.512 150.516,173.596C147.798,170.679 147.959,166.105 150.876,163.387C158.761,156.51 166.39,149.706 171.343,142.097C174.63,137.047 176.793,131.711 176.679,125.732C176.544,119.442 174.086,113.242 170.364,106.61C165.545,98.021 158.74,88.841 151.702,78.165C148.407,73.236 145.663,66.124 143.481,58.775C142.359,54.998 141.382,51.161 140.551,47.554C139.834,50.986 138.991,54.625 138.018,58.224C136.086,65.369 133.634,72.353 130.606,77.388C123.05,90.182 112.689,99.564 107.247,110.749C105.094,115.173 103.888,119.921 104.126,125.385C104.433,132.41 106.375,138.057 109.397,142.922C114.384,150.949 122.358,156.743 131.032,162.946C134.192,165.377 134.784,169.916 132.353,173.076C129.922,176.236 125.383,176.827 122.223,174.396Z"/>
    </g>
    <g id="v3" serif:id="v" transform="matrix(0.25189,-0.775237,0.775237,0.25189,-49.3913,218.091)">
        <path d="M131.032,162.946C122.358,156.743 114.384,150.949 109.397,142.922C106.375,138.057 104.433,132.41 104.126,125.385C103.888,119.921 105.094,115.173 107.247,110.749C112.689,99.564 123.05,90.182 130.606,77.388C133.634,72.353 136.086,65.369 138.018,58.224C138.991,54.625 139.834,50.986 140.55,47.555C141.382,51.161 142.359,54.998 143.481,58.775C145.663,66.124 148.407,73.236 151.702,78.165C158.74,88.841 165.545,98.021 170.364,106.61C174.086,113.242 176.544,119.442 176.679,125.732C176.793,131.711 174.63,137.047 171.343,142.097C166.39,149.706 158.761,156.51 150.876,163.387C147.959,166.105 147.798,170.679 150.516,173.596C153.234,176.512 157.808,176.674 160.725,173.956C169.04,165.678 176.929,157.384 181.926,148.511C186.056,141.177 188.413,133.505 187.735,125.178C187.247,119.03 185.168,113.004 181.821,106.835C176.382,96.81 167.63,86.245 158.335,73.555C155.254,69.289 152.622,63.048 150.501,56.581C145.976,42.789 143.684,28.036 143.684,28.036C143.436,26.369 141.995,25.14 140.309,25.161C138.623,25.181 137.211,26.444 137.004,28.117C137.004,28.117 135.165,42.544 131.104,56.267C129.221,62.631 126.836,68.831 123.978,73.258C115.641,85.951 104.754,95.122 98.575,106.232C95.378,111.981 93.393,118.212 93.261,125.524C93.093,134.791 95.281,142.35 98.834,149.011C104.042,158.775 112.599,166.44 122.223,174.396C125.383,176.827 129.922,176.236 132.353,173.076C134.784,169.916 134.192,165.377 131.032,162.946Z"/>
    </g>
    <g id="v4" serif:id="v" transform="matrix(-0.25189,-0.775237,-0.775237,0.25189,348.067,218.091)">
        <path d="M122.223,174.396C112.599,166.44 104.042,158.775 98.834,149.011C95.281,142.35 93.093,134.791 93.261,125.524C93.393,118.212 95.378,111.981 98.575,106.232C104.754,95.122 115.641,85.951 123.978,73.258C126.836,68.831 129.221,62.631 131.104,56.267C135.165,42.544 137.004,28.117 137.004,28.117C137.211,26.444 138.623,25.181 140.309,25.161C141.995,25.14 143.436,26.369 143.684,28.036C143.684,28.036 145.976,42.789 150.501,56.581C152.622,63.048 155.254,69.289 158.335,73.555C167.63,86.245 176.382,96.81 181.821,106.835C185.168,113.004 187.247,119.03 187.735,125.178C188.413,133.505 186.056,141.177 181.926,148.511C176.929,157.384 169.04,165.678 160.725,173.956C157.808,176.674 153.234,176.512 150.516,173.596C147.798,170.679 147.959,166.105 150.876,163.387C158.761,156.51 166.39,149.706 171.343,142.097C174.63,137.047 176.793,131.711 176.679,125.732C176.544,119.442 174.086,113.242 170.364,106.61C165.545,98.021 158.74,88.841 151.702,78.165C148.407,73.236 145.663,66.124 143.481,58.775C142.359,54.998 141.382,51.161 140.551,47.554C139.834,50.986 138.991,54.625 138.018,58.224C136.086,65.369 133.634,72.353 130.606,77.388C123.05,90.182 112.689,99.564 107.247,110.749C105.094,115.173 103.888,119.921 104.126,125.385C104.433,132.41 106.375,138.057 109.397,142.922C114.384,150.949 122.358,156.743 131.032,162.946C134.192,165.377 134.784,169.916 132.353,173.076C129.922,176.236 125.383,176.827 122.223,174.396Z"/>
    </g>
</svg>
