<?xml version="1.0" encoding="UTF-8" standalone="no"?>
<!DOCTYPE svg PUBLIC "-//W3C//DTD SVG 1.1//EN" "http://www.w3.org/Graphics/SVG/1.1/DTD/svg11.dtd">
<svg width="100%" height="100%" viewBox="0 0 300 300" version="1.1" xmlns="http://www.w3.org/2000/svg" xmlns:xlink="http://www.w3.org/1999/xlink" xml:space="preserve" xmlns:serif="http://www.serif.com/" style="fill-rule:evenodd;clip-rule:evenodd;stroke-linejoin:round;stroke-miterlimit:2;">
    <g transform="matrix(1,0,0,1,3.47827,14.7826)">
        <path d="M86.949,188.322C84.151,173.578 79.751,150.083 81.536,128.724C82.617,115.785 86.024,103.71 94.367,95.51C97.845,91.938 103.274,88.318 109.736,84.236C121.141,77.03 135.878,68.93 151.625,61.263C160.906,56.744 170.491,52.33 179.817,48.094C206.94,35.774 232.026,25.416 242.11,21.312C243.641,34.162 247.342,69.448 246.204,101.972C245.455,123.374 242.811,143.553 235.449,154.315C230.419,161.802 222.351,167.743 213.141,173.343C207.391,176.84 201.234,180.246 194.727,183.367C168.335,196.025 137.4,204.86 117.733,210.211C116.889,210.383 116.344,211.207 116.515,212.05C116.687,212.893 117.511,213.439 118.354,213.267C139.032,210.444 171.862,206.275 200.07,196.146C207.527,193.469 214.653,190.375 221.049,186.677C232.539,180.033 241.689,171.611 247.595,162.206C255.4,149.54 258.18,126.55 257.928,102.116C257.5,60.612 249.391,15.029 249.391,15.029L248.638,10.25L244.084,11.882C244.084,11.882 211.203,22.357 175,36.783C159.833,42.826 144.127,49.623 129.963,56.505C117.333,62.642 105.832,68.749 97.22,74.839C91.723,78.728 87.402,82.666 84.329,86.229C75.03,97.303 71.454,112.362 71.76,128.409C72.182,150.563 79.385,174.233 83.921,189.07C84.127,189.905 84.973,190.416 85.809,190.21C86.644,190.003 87.155,189.157 86.949,188.322Z"/>
    </g>
    <g transform="matrix(1,0,0,1,-6.52174,14.7826)">
        <path d="M42.225,260.917C56.714,252.694 68.394,244.593 78.847,236.291C90.541,227.006 100.693,217.499 111.568,207.324C125.455,194.334 153.477,161.515 180.992,126.503C205.53,95.279 229.655,62.341 243.182,40.51C243.463,40.074 243.338,39.491 242.901,39.21C242.465,38.928 241.883,39.054 241.601,39.49C227.323,60.732 202.002,92.579 176.486,122.835C148.115,156.476 119.517,188.11 105.388,200.502C94.401,210.137 84.152,219.149 72.39,227.885C62.098,235.529 50.635,242.942 36.471,250.387C33.565,251.975 32.495,255.623 34.083,258.529C35.67,261.435 39.319,262.505 42.225,260.917Z"/>
    </g>
</svg>
