<?xml version="1.0" encoding="UTF-8" standalone="no"?>
<!DOCTYPE svg PUBLIC "-//W3C//DTD SVG 1.1//EN" "http://www.w3.org/Graphics/SVG/1.1/DTD/svg11.dtd">
<svg width="100%" height="100%" viewBox="0 0 300 300" version="1.1" xmlns="http://www.w3.org/2000/svg" xmlns:xlink="http://www.w3.org/1999/xlink" xml:space="preserve" xmlns:serif="http://www.serif.com/" style="fill-rule:evenodd;clip-rule:evenodd;stroke-linejoin:round;stroke-miterlimit:2;">
    <g transform="matrix(1,0,0,1,16.4895,23.6163)">
        <path d="M258.266,125.145C247.391,125.02 234.993,125.162 221.725,125.44C203.007,125.834 182.562,126.7 162.214,127.269C153.65,127.509 145.111,127.603 136.722,127.769C127.588,127.896 112.612,128.694 97.642,127.888C89.102,127.428 80.582,126.419 73.279,124.325C66.035,122.377 59.761,119.279 54.531,115.777C47.995,111.401 43.151,106.346 40.304,101.96C35.572,94.703 32.59,89.068 30.736,82.653C28.994,76.631 28.258,69.949 27.816,60.766C27.556,56.066 27.367,52.152 28.755,48.364C29.878,45.296 32.101,42.405 35.823,39.073C39.893,35.43 45.458,33.124 51.128,31.663C57.579,30.001 64.226,29.474 69.474,29.854C78.717,30.507 86.722,31.942 93.758,33.93C102.402,36.372 109.563,39.635 115.683,43.499C123.102,48.108 129.488,52.663 133.916,57.198C136.9,60.255 139.28,62.871 139.131,65.75C138.88,70.859 136.072,74.168 132.197,76.341C127.237,79.121 120.948,80.457 114.986,81.152C107.563,82.276 101.07,82.211 95.488,81.452C86.744,80.262 80.28,77.681 76.238,76.034C74.204,75.061 71.763,75.923 70.79,77.957C69.817,79.992 70.678,82.433 72.713,83.406C76.992,85.774 83.856,89.475 93.432,91.941C99.835,93.589 107.396,94.542 116.202,94.232C125.854,93.561 136.088,91.241 143.295,86.069C149.282,81.773 153.319,75.563 154.156,66.838C154.647,61.576 152.733,55.94 148.524,50.214C143.629,43.553 135.147,36.525 124.737,29.508C117.464,24.685 108.952,20.461 98.573,17.361C90.54,14.961 81.361,13.275 70.769,12.446C63.909,11.924 55.205,12.52 46.767,14.68C38.321,16.842 30.188,20.593 24.132,26.019C17.704,31.778 14.236,37.049 12.302,42.352C10.136,48.292 9.941,54.384 10.366,61.751C11.068,72.592 12.194,80.452 14.368,87.532C16.783,95.395 20.432,102.346 26.409,111.187C30.332,116.961 36.825,123.699 45.686,129.333C52.336,133.561 60.299,137.219 69.429,139.422C77.864,141.309 87.603,142 97.334,141.905C112.689,141.755 127.939,139.85 137.264,139.084C143.254,138.592 149.308,138.023 155.413,137.596C169.575,136.603 183.917,135.928 197.784,135.243C220.015,134.144 241.038,133.395 258.237,133.317C260.492,133.325 262.329,131.5 262.338,129.245C262.346,126.99 260.521,125.153 258.266,125.145Z"/>
    </g>
    <g transform="matrix(1,0,0,1,7.25875,23.5549)">
        <path d="M271.347,160.144C261.772,159.876 246.176,159.476 230.242,159.322C220.804,159.23 211.248,159.208 202.745,159.421C196.283,159.482 189.078,159.523 181.659,159.473C170.903,159.402 159.737,159.186 149.714,159.584C140.538,159.95 132.33,160.809 126.192,162.194C118.496,163.995 110.412,167.403 104.186,172.768C99.679,176.652 96.2,181.597 94.256,187.592C92.362,194.586 94.15,201.639 98.609,207.72C103.911,214.95 112.615,220.856 119.275,223.485C124.952,225.942 132.867,226.559 140.867,225.851C148.272,225.195 155.749,223.442 161.44,220.597C168.595,216.953 172.382,211.351 172.47,205.582C172.576,198.651 167.583,190.854 156.675,186.566C154.973,185.661 152.856,186.308 151.95,188.01C151.045,189.713 151.692,191.83 153.395,192.735C158.075,195.966 160.524,199.676 161.006,203.176C161.086,203.754 160.868,204.294 160.809,204.846C160.56,207.151 159.001,209.162 156.183,210.731C151.745,213.247 145.837,215.121 139.907,215.719C133.886,216.326 127.888,215.687 123.663,213.718C119.591,211.657 114.63,207.723 110.999,203.115C108.24,199.613 106.18,195.645 107.562,191.709C108.89,187.175 111.827,183.694 115.412,181.001C119.578,177.871 124.539,175.678 129.333,174.31C136.422,172.214 146.69,170.841 157.943,169.852C172.946,168.532 189.583,167.871 202.989,167.013C211.404,166.682 220.863,166.529 230.207,166.528C246.086,166.527 261.628,166.913 271.171,167.129C273.098,167.177 274.702,165.652 274.751,163.725C274.8,161.797 273.274,160.193 271.347,160.144Z"/>
    </g>
    <g transform="matrix(1,0,0,1,-75.3499,7.46791)">
        <path d="M363.458,158.76C349.655,158.555 333.638,158.811 316.553,159.276C299.065,159.752 280.462,160.521 261.972,161.176C243.247,161.84 224.648,162.375 207.458,162.784C198.344,163.02 188.816,163.449 174.589,162.222C165.831,161.467 155.296,160.094 141.986,157.63C127.869,155.096 118.123,157.455 111.802,161.955C105.249,166.62 101.988,173.719 101.445,181.562C100.944,188.996 102.665,194.818 105.576,199.472C110.46,207.282 118.901,211.719 125.776,214.997C131.874,217.858 141.491,220.556 149.937,220.139C156.995,219.79 163.241,217.372 166.881,212.113C170.266,206.961 169.688,199.592 163.923,192.583C159.645,187.38 152.659,182.177 143.466,178.646C141.88,177.952 140.029,178.677 139.335,180.263C138.641,181.849 139.366,183.7 140.952,184.394C147.021,187.385 151.829,191.134 155.181,194.956C157.177,197.234 158.551,199.554 159.301,201.722C159.929,203.537 159.971,205.201 159.002,206.433C156.377,209.931 151.412,210.173 146.453,209.708C140.642,209.163 134.655,207.128 130.639,205.075C126.23,202.843 120.867,200.134 117.086,195.702C114.338,192.481 112.577,188.231 112.982,182.347C113.339,176.991 115.766,172.143 121.306,169.751C125.795,167.813 131.945,167.337 140.06,168.7C153.853,170.948 164.757,172.156 173.816,172.711C188.569,173.614 198.418,172.857 207.841,172.345C237.012,170.799 270.232,168.461 301.24,166.886C324.001,165.731 345.561,165.014 363.407,165.034C365.138,165.048 366.555,163.654 366.569,161.923C366.584,160.192 365.19,158.775 363.458,158.76Z"/>
    </g>
</svg>
