<?xml version="1.0" encoding="UTF-8" standalone="no"?>
<!DOCTYPE svg PUBLIC "-//W3C//DTD SVG 1.1//EN" "http://www.w3.org/Graphics/SVG/1.1/DTD/svg11.dtd">
<svg width="100%" height="100%" viewBox="0 0 300 300" version="1.1" xmlns="http://www.w3.org/2000/svg" xmlns:xlink="http://www.w3.org/1999/xlink" xml:space="preserve" xmlns:serif="http://www.serif.com/" style="fill-rule:evenodd;clip-rule:evenodd;stroke-linejoin:round;stroke-miterlimit:2;">
    <path d="M27.01,59.071C26.238,59.514 25.835,60.402 26.009,61.275C26.183,62.149 26.896,62.814 27.78,62.927C27.78,62.927 41.311,64.708 79.225,66.087C90.01,66.479 102.773,66.783 117.765,67.133C129.264,67.401 142.068,67.738 156.304,67.961C193.094,68.594 213.824,68.211 225.411,66.935C232.366,66.169 236.369,64.965 238.665,63.719C240.449,62.75 241.523,61.621 242.228,60.5C243.239,58.894 243.535,57.175 243.403,55.315C243.278,53.613 242.926,51.762 241.742,49.857C240.053,47.141 236.266,43.82 226.311,41.617C214.718,39.051 193.291,37.507 153.613,38.6C120.699,39.722 95.661,42.314 76.928,45.36C39.528,51.439 27.01,59.071 27.01,59.071ZM234.411,55.884L234.388,55.949C234.199,56.022 233.967,56.092 233.796,56.168C232.994,56.524 231.963,56.848 230.653,57.164C226.19,58.239 219.011,59.094 207.578,59.812C195.585,60.566 179.059,61.192 156.304,61.604C142.094,61.827 129.309,61.999 117.828,61.984C102.867,61.964 90.131,61.7 79.368,61.431C58.348,60.905 44.877,60.149 37.082,59.585C44.41,57.226 57.29,53.934 77.793,51.254C96.401,48.821 121.212,46.851 153.778,46.618C184.119,46.221 203.494,47.253 215.892,48.94C222.795,49.88 227.398,50.996 230.465,52.265C233.542,53.538 234.286,54.68 234.411,55.884ZM234.417,55.937L234.423,55.989C234.428,56.051 234.49,56.174 234.43,56.171C234.357,56.168 234.354,56.065 234.388,55.949L234.417,55.937L234.411,55.884C234.475,55.713 234.601,55.549 234.69,55.647C234.792,55.759 234.64,55.851 234.417,55.937Z"/>
    <g transform="matrix(0.908188,0,0,1.3046,41.7052,14.3935)">
        <path d="M27.43,57.111C26.448,57.316 25.813,57.977 25.916,58.687C26.02,59.397 26.832,59.956 27.853,60.019C27.853,60.019 41.378,60.884 79.272,61.605C91.854,61.844 107.128,62.019 125.492,62.254C134.93,62.374 145.179,62.548 156.304,62.676C195.135,63.146 217.533,63.558 230.165,63.043C235.771,62.814 239.615,62.365 242.199,61.771C245.394,61.036 247.187,59.942 248.252,58.758C249.234,57.665 249.656,56.404 249.548,54.919C249.429,53.273 248.236,51.641 245.62,50.267C243.455,49.13 240.013,48.075 235.582,47.245C222.797,44.85 200.857,43.89 181.97,43.922C152.006,44.089 125.903,45.307 104.117,47.035C54.66,50.956 27.43,57.111 27.43,57.111ZM240.169,55.56C239.766,55.667 239.09,55.749 238.596,55.85C235.166,56.547 229.511,56.899 220.527,57.181C207.167,57.599 186.855,57.812 156.304,58.194C144.688,58.327 134.025,58.455 124.246,58.488C112.265,58.528 101.619,58.458 92.192,58.391C69.401,58.227 53.756,57.912 43.646,57.63C56.431,55.877 77.145,53.506 104.808,51.87C126.431,50.59 152.287,49.694 181.943,49.991C194.817,50.079 209.149,50.671 220.787,51.825C227.697,52.51 233.617,53.373 237.56,54.524C238.521,54.805 239.66,55.32 240.169,55.56ZM240.352,55.504L240.312,55.401L240.298,55.35C240.346,55.295 240.415,55.254 240.457,55.286C240.568,55.372 240.51,55.442 240.352,55.504ZM240.298,55.35L240.296,55.352L240.306,55.385L240.312,55.401C240.329,55.462 240.332,55.511 240.272,55.502C240.21,55.492 240.24,55.413 240.296,55.352C240.285,55.316 240.278,55.283 240.276,55.256C240.278,55.282 240.288,55.316 240.298,55.35Z"/>
    </g>
    <g transform="matrix(0.894476,0,0,1.09923,32.0898,56.9349)">
        <path d="M29.503,55.192C28.487,55.382 27.78,56.132 27.819,56.98C27.858,57.828 28.632,58.534 29.663,58.661C29.663,58.661 42.49,60.271 80.366,61.508C92.732,61.912 107.777,62.22 125.929,62.552C135.223,62.722 145.324,62.943 156.304,63.096C181.963,63.489 200.355,63.921 213.475,64.029C226.022,64.133 233.864,63.946 238.635,63.368C243.457,62.783 245.972,61.521 247.313,60.229C248.676,58.916 249.256,57.364 249.117,55.458C249.006,53.931 248.155,52.386 246.245,51.023C244.163,49.537 240.166,48.082 234.729,47.002C222.058,44.486 200.63,43.309 181.969,43.356C152.398,43.569 126.77,44.64 105.411,46.168C56.075,49.699 29.503,55.192 29.503,55.192ZM237.573,55.823C233.986,56.369 228.353,56.624 219.737,56.829C206.448,57.145 186.365,57.322 156.304,57.774C145.347,57.926 135.263,58.059 125.987,58.072C107.878,58.096 92.869,57.835 80.531,57.555C66.105,57.227 55.346,56.799 47.569,56.395L47.568,56.395C57.689,55.252 72.186,53.864 90.749,52.719C114.642,51.245 145.249,50.103 181.944,50.557C192.43,50.639 203.808,51.146 213.9,52.026C222.468,52.773 230.083,53.79 235.327,55.116C236.078,55.305 236.862,55.563 237.573,55.823ZM239.777,55.542C239.883,55.239 240.096,54.962 240.258,55.181C240.396,55.367 240.166,55.471 239.777,55.542Z"/>
    </g>
    <g transform="matrix(0.654967,0,0,0.804896,80.5456,99.4623)">
        <path d="M27.536,56.493C26.28,56.932 25.556,58.014 25.784,59.111C26.012,60.208 27.133,61.036 28.497,61.115C28.497,61.115 38.746,61.743 66.901,62.411C80.384,62.73 97.984,62.956 120.546,63.346C131.31,63.532 143.191,63.828 156.304,64.058C182.243,64.595 200.91,65.19 214.275,65.418C226.981,65.634 235.034,65.525 239.982,65.011C245.284,64.46 248.145,63.099 249.723,61.765C251.639,60.144 252.47,58.197 252.295,55.768C252.183,54.222 251.403,52.564 249.427,51.072C247.049,49.276 240.784,47.208 232.042,45.786C213.472,42.764 182.399,41.049 163.385,41.152C128.817,41.59 101.803,43.513 81.314,45.954C43.253,50.488 27.536,56.493 27.536,56.493ZM226.676,55.559C213.614,56.046 191.836,56.147 156.304,56.811C144.744,57.026 134.143,57.252 124.418,57.338C112.495,57.444 101.907,57.392 92.536,57.359C73.113,57.289 58.933,57.1 48.958,56.9C57.166,55.557 68.196,54.102 82.379,52.916C102.663,51.221 129.318,50.018 163.354,50.6C180.788,50.76 208.744,52.719 226.676,55.559ZM240.159,54.63C240.418,54.227 240.726,53.885 240.92,54.227C241.062,54.48 240.703,54.578 240.159,54.63Z"/>
    </g>
    <g transform="matrix(0.551498,0,0,0.804896,117.491,125.718)">
        <path d="M35.862,55.828C34.234,56.107 33.12,57.134 33.199,58.283C33.278,59.431 34.529,60.382 36.188,60.554C36.188,60.554 44.239,61.414 72.413,62.263C86.445,62.686 105.516,62.989 131.144,63.442C138.917,63.579 147.282,63.797 156.304,63.966C182.511,64.527 201.284,65.139 214.68,65.376C227.886,65.61 236.097,65.468 241.032,64.895C247.23,64.175 250.192,62.405 251.796,60.665C253.041,59.313 253.628,57.725 253.502,55.818C253.187,51.508 248.464,47.182 237.743,44.748C229.464,42.868 216.902,41.853 200.901,41.911C169.649,42.214 141.548,43.565 117.782,45.503C66.86,49.657 35.862,55.828 35.862,55.828ZM234.575,55.132C230.09,55.479 223.68,55.644 214.667,55.815C201.279,56.068 182.499,56.343 156.304,56.903C145.9,57.092 136.367,57.286 127.616,57.352C110.347,57.482 96.179,57.337 84.608,57.208C79.079,57.146 74.148,57.071 69.759,56.988C82.782,55.811 99.393,54.554 118.909,53.589C142.407,52.428 170.096,51.568 200.854,52.002C210.059,52.087 217.971,52.542 224.402,53.302C228.492,53.785 231.912,54.375 234.575,55.132ZM238.828,54.696C239.192,54.199 239.649,53.93 239.978,54.398C240.139,54.626 239.474,54.652 238.828,54.696Z"/>
    </g>
    <g transform="matrix(0.399489,0,0,0.804896,137.38,151.856)">
        <path d="M26.746,56.141C25.017,56.642 24.111,57.629 24.484,58.606C24.856,59.582 26.427,60.337 28.406,60.489C28.406,60.489 38.616,61.311 66.972,62.125C82.152,62.561 102.587,62.881 129.513,63.311C137.82,63.444 146.726,63.648 156.304,63.803C199.74,64.591 226.903,65.039 242.46,64.191C249.497,63.807 254.547,63.071 258.007,62.225C265.69,60.348 268.265,57.578 268.106,54.277C267.984,52.484 266.489,50.674 262.963,49.091C259.681,47.617 253.35,46.119 244.848,45.09C223.908,42.553 187.611,41.751 167.849,41.848C131.804,42.266 103.404,44.15 81.867,46.517C43.579,50.724 26.746,56.141 26.746,56.141ZM237.401,54.677C233.373,54.967 228.504,55.204 222.705,55.429C207.081,56.037 185.453,56.516 156.304,57.067C147.255,57.216 138.806,57.374 130.895,57.432C116.392,57.537 103.759,57.449 92.802,57.367C74.502,57.229 60.92,56.969 51.153,56.703C59.449,55.531 70.468,54.252 84.388,53.187C105.433,51.576 132.98,50.427 167.767,50.985C182.241,51.132 206.019,51.996 225.187,53.526C229.586,53.878 233.726,54.255 237.401,54.677ZM247.988,53.442C248.238,53.111 248.585,52.92 248.973,53.164C249.179,53.294 248.467,53.36 247.988,53.442Z"/>
    </g>
    <g transform="matrix(0.307838,0,0,0.933727,132.097,167.524)">
        <path d="M37.896,54.35C36.265,54.698 35.247,55.286 35.166,55.926C35.086,56.567 35.953,57.18 37.492,57.571C37.492,57.571 44.357,59.498 73.903,61.05C87.46,61.761 106.121,62.319 131.609,62.797C139.223,62.94 147.418,63.124 156.304,63.251C200.48,63.983 224.011,64.801 236.29,64.324C244.096,64.021 248.926,63.105 252.234,62.083C256.639,60.721 258.882,58.813 258.863,55.981C258.594,52.443 251.571,49.113 238.701,46.848C224.079,44.274 201.364,42.919 182.037,42.996C152.649,43.253 128.13,44.223 108.191,45.626C59.553,49.049 37.896,54.35 37.896,54.35ZM232.972,56.386C231.057,56.456 228.249,56.433 225.927,56.507C212.754,56.927 191.15,57.026 156.304,57.618C148.901,57.729 141.982,57.838 135.471,57.86C115.49,57.928 99.639,57.607 87.107,57.233C73.593,56.831 64.173,56.315 57.715,55.837C66.49,54.814 79.675,53.544 97.478,52.528C118.893,51.306 146.826,50.428 181.876,50.917C192.673,51.015 204.691,51.685 214.951,52.784C220.152,53.34 224.854,54.015 228.534,54.825C229.806,55.106 230.926,55.4 231.824,55.72C232.273,55.88 232.859,55.996 232.876,56.193C232.884,56.249 232.925,56.317 232.972,56.386ZM233.034,56.479C233.142,56.632 233.212,56.764 232.918,56.745C232.499,56.717 232.677,56.606 233.034,56.479ZM233.36,56.37C233.685,56.268 234.047,56.166 234.255,56.095C234.471,56.021 234.937,55.802 235.103,55.913C235.504,56.183 234.719,56.308 233.36,56.37Z"/>
    </g>
    <g transform="matrix(0.265364,0,0,0.804896,120.063,197.976)">
        <path d="M66.488,54.395C65.37,54.97 63.892,56.133 66.145,57.599C67.478,58.465 71.267,59.844 82.896,60.899C94.587,61.96 116.289,62.981 156.304,63.319C200.609,64.238 224.139,65.146 236.479,64.714C244.643,64.428 249.667,63.446 253.145,62.386C257.814,60.964 260.181,58.952 260.195,55.97C259.895,52.297 252.716,48.805 239.319,46.475C224.517,43.9 201.555,42.579 182.043,42.707C150.215,43.138 127.323,44.278 110.885,45.783C75.438,49.029 67.702,53.51 66.488,54.395ZM230.923,56.041C229.332,56.074 227.479,56.086 225.87,56.144C212.705,56.618 191.146,56.812 156.304,57.55C108.068,57.946 88.02,57.013 79.955,55.857C83.337,54.961 92.649,53.13 114.969,51.95C130.68,51.119 152.203,50.673 181.87,51.206C192.573,51.331 204.458,52.04 214.607,53.153C219.675,53.709 224.242,54.385 227.823,55.183C228.995,55.444 230.017,55.721 230.846,56.018L230.923,56.041ZM77.905,56.605C77.291,57.105 75.897,57.365 74.65,57.499C75.991,57.329 77.142,57.017 77.905,56.605ZM231.62,56.352C231.732,56.509 231.895,56.677 231.583,56.665C231.033,56.642 231.201,56.51 231.62,56.352ZM231.52,56.287L231.539,56.223L231.553,56.227L231.57,56.273L231.602,56.323L231.582,56.327C231.504,56.329 231.525,56.311 231.52,56.287ZM232.713,55.989L233.343,55.792C233.655,55.684 234.333,55.37 234.578,55.531C234.989,55.801 234.139,55.924 232.713,55.989Z"/>
    </g>
    <g transform="matrix(0.265364,0,0,0.804896,104.715,219.281)">
        <path d="M71.391,57.881C71.003,57.97 70.693,58.056 70.523,58.131C69.441,58.611 69.077,59.131 69.196,59.652C69.304,60.126 69.689,61.064 73.849,61.63C74.826,61.763 77.032,61.951 81.503,62.118C90.405,62.452 110.886,62.86 156.304,63.19C203.328,64.177 228.204,64.242 241.014,63.055C248.378,62.372 252.922,61.161 256.144,59.875C260.083,58.302 261.752,56.315 261.797,53.81C261.502,49.806 253.216,46.432 237.856,44.637C223.033,42.905 200.616,42.562 182.044,42.678C148.584,43.128 125.417,44.768 109.426,46.923C80.951,50.761 73.362,55.807 71.391,57.881ZM233.224,54.119C233.229,54.222 233.235,54.355 233.293,54.439C233.202,54.492 233.193,54.538 233.325,54.549C233.434,54.558 233.487,54.544 233.502,54.516C233.523,54.513 233.546,54.508 233.57,54.5C233.837,54.419 233.872,54.342 233.734,54.27C233.938,54.218 234.15,54.195 234.259,54.245C235.061,54.617 231.652,54.753 229.651,54.952C226.029,55.313 221.511,55.661 215.783,55.941C202.295,56.601 183.227,57.108 156.304,57.679C118.645,57.953 98.411,57.934 87.736,57.793C91.93,56.358 100.148,54.382 115.707,52.93C130.664,51.534 151.781,50.696 181.869,51.235C190.71,51.341 200.513,51.592 209.676,52.04C216.441,52.37 222.796,52.834 227.959,53.487C229.5,53.681 232.075,53.883 233.224,54.119ZM233.224,54.119L233.219,54.043C233.223,54.068 233.236,54.096 233.255,54.125C233.479,54.172 233.645,54.22 233.734,54.27C233.629,54.296 233.527,54.33 233.443,54.365L233.313,54.206L233.255,54.125L233.224,54.119Z"/>
    </g>
</svg>
