<?xml version="1.0" encoding="UTF-8" standalone="no"?>
<!DOCTYPE svg PUBLIC "-//W3C//DTD SVG 1.1//EN" "http://www.w3.org/Graphics/SVG/1.1/DTD/svg11.dtd">
<svg width="100%" height="100%" viewBox="0 0 300 300" version="1.1" xmlns="http://www.w3.org/2000/svg" xmlns:xlink="http://www.w3.org/1999/xlink" xml:space="preserve" xmlns:serif="http://www.serif.com/" style="fill-rule:evenodd;clip-rule:evenodd;stroke-linejoin:round;stroke-miterlimit:2;">
    <g id="Layer3" transform="matrix(1.26912,0,0,1.26912,-40.3678,-40.3678)">
        <g transform="matrix(0.69878,0,0,1,45.1764,5.86956)">
            <path d="M120.836,92.523C120.836,92.523 125.57,95.74 131.324,99.295C132.852,100.239 134.374,101.15 135.957,102.034C138.277,103.328 140.488,104.497 142.366,105.408C144.984,106.679 146.848,107.409 146.848,107.409C148.796,108.207 151.209,108.206 153.156,107.407C153.156,107.407 154.504,106.867 156.489,105.88C158.506,104.876 161.114,103.46 163.905,101.886C166.013,100.696 168.073,99.465 170.076,98.241C175.169,95.129 179.121,92.523 179.121,92.523C179.603,92.325 179.764,91.892 179.481,91.555C179.198,91.218 178.578,91.106 178.096,91.303C178.096,91.303 172.914,92.446 166.543,94.037C164.038,94.663 161.495,95.32 158.982,96.027C155.654,96.963 152.614,97.865 150.377,98.607C150.276,98.641 150.177,98.674 150.08,98.707C149.59,98.529 149.049,98.338 148.465,98.139C146.409,97.439 143.87,96.662 141.121,95.879C139.245,95.346 137.364,94.862 135.439,94.392C128.189,92.619 121.86,91.303 121.86,91.303C121.378,91.106 120.757,91.219 120.475,91.555C120.192,91.892 120.354,92.326 120.836,92.523Z"/>
        </g>
        <g transform="matrix(0.34939,-0.605161,0.866025,0.5,-27.2324,168.715)">
            <path d="M120.836,92.523C120.836,92.523 125.57,95.74 131.324,99.295C132.852,100.239 134.374,101.15 135.957,102.034C138.277,103.328 140.488,104.497 142.366,105.408C144.984,106.679 146.848,107.409 146.848,107.409C148.796,108.207 151.209,108.206 153.156,107.407C153.156,107.407 154.504,106.867 156.489,105.88C158.506,104.876 161.114,103.46 163.905,101.886C166.013,100.696 168.073,99.465 170.076,98.241C175.169,95.129 179.121,92.523 179.121,92.523C179.603,92.325 179.764,91.892 179.481,91.555C179.198,91.218 178.578,91.106 178.096,91.303C178.096,91.303 172.914,92.446 166.543,94.037C164.038,94.663 161.495,95.32 158.982,96.027C155.654,96.963 152.614,97.865 150.377,98.607C150.276,98.641 150.177,98.674 150.08,98.707C149.59,98.529 149.049,98.338 148.465,98.139C146.409,97.439 143.87,96.662 141.121,95.879C139.245,95.346 137.364,94.862 135.439,94.392C128.189,92.619 121.86,91.303 121.86,91.303C121.378,91.106 120.757,91.219 120.475,91.555C120.192,91.892 120.354,92.326 120.836,92.523Z"/>
        </g>
        <g transform="matrix(-0.34939,-0.605161,0.866025,-0.5,77.5912,312.845)">
            <path d="M120.836,92.523C120.836,92.523 125.57,95.74 131.324,99.295C132.852,100.239 134.374,101.15 135.957,102.034C138.277,103.328 140.488,104.497 142.366,105.408C144.984,106.679 146.848,107.409 146.848,107.409C148.796,108.207 151.209,108.206 153.156,107.407C153.156,107.407 154.504,106.867 156.489,105.88C158.506,104.876 161.114,103.46 163.905,101.886C166.013,100.696 168.073,99.465 170.076,98.241C175.169,95.129 179.121,92.523 179.121,92.523C179.603,92.325 179.764,91.892 179.481,91.555C179.198,91.218 178.578,91.106 178.096,91.303C178.096,91.303 172.914,92.446 166.543,94.037C164.038,94.663 161.495,95.32 158.982,96.027C155.654,96.963 152.614,97.865 150.377,98.607C150.276,98.641 150.177,98.674 150.08,98.707C149.59,98.529 149.049,98.338 148.465,98.139C146.409,97.439 143.87,96.662 141.121,95.879C139.245,95.346 137.364,94.862 135.439,94.392C128.189,92.619 121.86,91.303 121.86,91.303C121.378,91.106 120.757,91.219 120.475,91.555C120.192,91.892 120.354,92.326 120.836,92.523Z"/>
        </g>
        <g transform="matrix(-0.69878,-1.66533e-16,3.88578e-16,-1,254.824,294.13)">
            <path d="M120.836,92.523C120.836,92.523 125.57,95.74 131.324,99.295C132.852,100.239 134.374,101.15 135.957,102.034C138.277,103.328 140.488,104.497 142.366,105.408C144.984,106.679 146.848,107.409 146.848,107.409C148.796,108.207 151.209,108.206 153.156,107.407C153.156,107.407 154.504,106.867 156.489,105.88C158.506,104.876 161.114,103.46 163.905,101.886C166.013,100.696 168.073,99.465 170.076,98.241C175.169,95.129 179.121,92.523 179.121,92.523C179.603,92.325 179.764,91.892 179.481,91.555C179.198,91.218 178.578,91.106 178.096,91.303C178.096,91.303 172.914,92.446 166.543,94.037C164.038,94.663 161.495,95.32 158.982,96.027C155.654,96.963 152.614,97.865 150.377,98.607C150.276,98.641 150.177,98.674 150.08,98.707C149.59,98.529 149.049,98.338 148.465,98.139C146.409,97.439 143.87,96.662 141.121,95.879C139.245,95.346 137.364,94.862 135.439,94.392C128.189,92.619 121.86,91.303 121.86,91.303C121.378,91.106 120.757,91.219 120.475,91.555C120.192,91.892 120.354,92.326 120.836,92.523Z"/>
        </g>
        <g transform="matrix(-0.34939,0.605161,-0.866025,-0.5,327.232,131.285)">
            <path d="M120.836,92.523C120.836,92.523 125.57,95.74 131.324,99.295C132.852,100.239 134.374,101.15 135.957,102.034C138.277,103.328 140.488,104.497 142.366,105.408C144.984,106.679 146.848,107.409 146.848,107.409C148.796,108.207 151.209,108.206 153.156,107.407C153.156,107.407 154.504,106.867 156.489,105.88C158.506,104.876 161.114,103.46 163.905,101.886C166.013,100.696 168.073,99.465 170.076,98.241C175.169,95.129 179.121,92.523 179.121,92.523C179.603,92.325 179.764,91.892 179.481,91.555C179.198,91.218 178.578,91.106 178.096,91.303C178.096,91.303 172.914,92.446 166.543,94.037C164.038,94.663 161.495,95.32 158.982,96.027C155.654,96.963 152.614,97.865 150.377,98.607C150.276,98.641 150.177,98.674 150.08,98.707C149.59,98.529 149.049,98.338 148.465,98.139C146.409,97.439 143.87,96.662 141.121,95.879C139.245,95.346 137.364,94.862 135.439,94.392C128.189,92.619 121.86,91.303 121.86,91.303C121.378,91.106 120.757,91.219 120.475,91.555C120.192,91.892 120.354,92.326 120.836,92.523Z"/>
        </g>
        <g transform="matrix(0.34939,0.605161,-0.866025,0.5,222.409,-12.8451)">
            <path d="M120.836,92.523C120.836,92.523 125.57,95.74 131.324,99.295C132.852,100.239 134.374,101.15 135.957,102.034C138.277,103.328 140.488,104.497 142.366,105.408C144.984,106.679 146.848,107.409 146.848,107.409C148.796,108.207 151.209,108.206 153.156,107.407C153.156,107.407 154.504,106.867 156.489,105.88C158.506,104.876 161.114,103.46 163.905,101.886C166.013,100.696 168.073,99.465 170.076,98.241C175.169,95.129 179.121,92.523 179.121,92.523C179.603,92.325 179.764,91.892 179.481,91.555C179.198,91.218 178.578,91.106 178.096,91.303C178.096,91.303 172.914,92.446 166.543,94.037C164.038,94.663 161.495,95.32 158.982,96.027C155.654,96.963 152.614,97.865 150.377,98.607C150.276,98.641 150.177,98.674 150.08,98.707C149.59,98.529 149.049,98.338 148.465,98.139C146.409,97.439 143.87,96.662 141.121,95.879C139.245,95.346 137.364,94.862 135.439,94.392C128.189,92.619 121.86,91.303 121.86,91.303C121.378,91.106 120.757,91.219 120.475,91.555C120.192,91.892 120.354,92.326 120.836,92.523Z"/>
        </g>
        <g transform="matrix(0.69878,0,0,1,45.1764,-32.7689)">
            <path d="M120.836,92.523C120.836,92.523 125.57,95.74 131.324,99.295C132.852,100.239 134.374,101.15 135.957,102.034C138.277,103.328 140.488,104.497 142.366,105.408C144.984,106.679 146.848,107.409 146.848,107.409C148.796,108.207 151.209,108.206 153.156,107.407C153.156,107.407 154.504,106.867 156.489,105.88C158.506,104.876 161.114,103.46 163.905,101.886C166.013,100.696 168.073,99.465 170.076,98.241C175.169,95.129 179.121,92.523 179.121,92.523C179.603,92.325 179.764,91.892 179.481,91.555C179.198,91.218 178.578,91.106 178.096,91.303C178.096,91.303 172.914,92.446 166.543,94.037C164.038,94.663 161.495,95.32 158.982,96.027C155.654,96.963 152.614,97.865 150.377,98.607C150.276,98.641 150.177,98.674 150.08,98.707C149.59,98.529 149.049,98.338 148.465,98.139C146.409,97.439 143.87,96.662 141.121,95.879C139.245,95.346 137.364,94.862 135.439,94.392C128.189,92.619 121.86,91.303 121.86,91.303C121.378,91.106 120.757,91.219 120.475,91.555C120.192,91.892 120.354,92.326 120.836,92.523Z"/>
        </g>
        <g transform="matrix(0.34939,-0.605161,0.866025,0.5,-60.6943,149.395)">
            <path d="M120.836,92.523C120.836,92.523 125.57,95.74 131.324,99.295C132.852,100.239 134.374,101.15 135.957,102.034C138.277,103.328 140.488,104.497 142.366,105.408C144.984,106.679 146.848,107.409 146.848,107.409C148.796,108.207 151.209,108.206 153.156,107.407C153.156,107.407 154.504,106.867 156.489,105.88C158.506,104.876 161.114,103.46 163.905,101.886C166.013,100.696 168.073,99.465 170.076,98.241C175.169,95.129 179.121,92.523 179.121,92.523C179.603,92.325 179.764,91.892 179.481,91.555C179.198,91.218 178.578,91.106 178.096,91.303C178.096,91.303 172.914,92.446 166.543,94.037C164.038,94.663 161.495,95.32 158.982,96.027C155.654,96.963 152.614,97.865 150.377,98.607C150.276,98.641 150.177,98.674 150.08,98.707C149.59,98.529 149.049,98.338 148.465,98.139C146.409,97.439 143.87,96.662 141.121,95.879C139.245,95.346 137.364,94.862 135.439,94.392C128.189,92.619 121.86,91.303 121.86,91.303C121.378,91.106 120.757,91.219 120.475,91.555C120.192,91.892 120.354,92.326 120.836,92.523Z"/>
        </g>
        <g transform="matrix(-0.34939,-0.605161,0.866025,-0.5,44.1293,332.164)">
            <path d="M120.836,92.523C120.836,92.523 125.57,95.74 131.324,99.295C132.852,100.239 134.374,101.15 135.957,102.034C138.277,103.328 140.488,104.497 142.366,105.408C144.984,106.679 146.848,107.409 146.848,107.409C148.796,108.207 151.209,108.206 153.156,107.407C153.156,107.407 154.504,106.867 156.489,105.88C158.506,104.876 161.114,103.46 163.905,101.886C166.013,100.696 168.073,99.465 170.076,98.241C175.169,95.129 179.121,92.523 179.121,92.523C179.603,92.325 179.764,91.892 179.481,91.555C179.198,91.218 178.578,91.106 178.096,91.303C178.096,91.303 172.914,92.446 166.543,94.037C164.038,94.663 161.495,95.32 158.982,96.027C155.654,96.963 152.614,97.865 150.377,98.607C150.276,98.641 150.177,98.674 150.08,98.707C149.59,98.529 149.049,98.338 148.465,98.139C146.409,97.439 143.87,96.662 141.121,95.879C139.245,95.346 137.364,94.862 135.439,94.392C128.189,92.619 121.86,91.303 121.86,91.303C121.378,91.106 120.757,91.219 120.475,91.555C120.192,91.892 120.354,92.326 120.836,92.523Z"/>
        </g>
        <g transform="matrix(-0.69878,-1.66533e-16,3.88578e-16,-1,254.824,332.769)">
            <path d="M120.836,92.523C120.836,92.523 125.57,95.74 131.324,99.295C132.852,100.239 134.374,101.15 135.957,102.034C138.277,103.328 140.488,104.497 142.366,105.408C144.984,106.679 146.848,107.409 146.848,107.409C148.796,108.207 151.209,108.206 153.156,107.407C153.156,107.407 154.504,106.867 156.489,105.88C158.506,104.876 161.114,103.46 163.905,101.886C166.013,100.696 168.073,99.465 170.076,98.241C175.169,95.129 179.121,92.523 179.121,92.523C179.603,92.325 179.764,91.892 179.481,91.555C179.198,91.218 178.578,91.106 178.096,91.303C178.096,91.303 172.914,92.446 166.543,94.037C164.038,94.663 161.495,95.32 158.982,96.027C155.654,96.963 152.614,97.865 150.377,98.607C150.276,98.641 150.177,98.674 150.08,98.707C149.59,98.529 149.049,98.338 148.465,98.139C146.409,97.439 143.87,96.662 141.121,95.879C139.245,95.346 137.364,94.862 135.439,94.392C128.189,92.619 121.86,91.303 121.86,91.303C121.378,91.106 120.757,91.219 120.475,91.555C120.192,91.892 120.354,92.326 120.836,92.523Z"/>
        </g>
        <g transform="matrix(-0.34939,0.605161,-0.866025,-0.5,360.694,150.605)">
            <path d="M120.836,92.523C120.836,92.523 125.57,95.74 131.324,99.295C132.852,100.239 134.374,101.15 135.957,102.034C138.277,103.328 140.488,104.497 142.366,105.408C144.984,106.679 146.848,107.409 146.848,107.409C148.796,108.207 151.209,108.206 153.156,107.407C153.156,107.407 154.504,106.867 156.489,105.88C158.506,104.876 161.114,103.46 163.905,101.886C166.013,100.696 168.073,99.465 170.076,98.241C175.169,95.129 179.121,92.523 179.121,92.523C179.603,92.325 179.764,91.892 179.481,91.555C179.198,91.218 178.578,91.106 178.096,91.303C178.096,91.303 172.914,92.446 166.543,94.037C164.038,94.663 161.495,95.32 158.982,96.027C155.654,96.963 152.614,97.865 150.377,98.607C150.276,98.641 150.177,98.674 150.08,98.707C149.59,98.529 149.049,98.338 148.465,98.139C146.409,97.439 143.87,96.662 141.121,95.879C139.245,95.346 137.364,94.862 135.439,94.392C128.189,92.619 121.86,91.303 121.86,91.303C121.378,91.106 120.757,91.219 120.475,91.555C120.192,91.892 120.354,92.326 120.836,92.523Z"/>
        </g>
        <g transform="matrix(0.34939,0.605161,-0.866025,0.5,255.871,-32.1643)">
            <path d="M120.836,92.523C120.836,92.523 125.57,95.74 131.324,99.295C132.852,100.239 134.374,101.15 135.957,102.034C138.277,103.328 140.488,104.497 142.366,105.408C144.984,106.679 146.848,107.409 146.848,107.409C148.796,108.207 151.209,108.206 153.156,107.407C153.156,107.407 154.504,106.867 156.489,105.88C158.506,104.876 161.114,103.46 163.905,101.886C166.013,100.696 168.073,99.465 170.076,98.241C175.169,95.129 179.121,92.523 179.121,92.523C179.603,92.325 179.764,91.892 179.481,91.555C179.198,91.218 178.578,91.106 178.096,91.303C178.096,91.303 172.914,92.446 166.543,94.037C164.038,94.663 161.495,95.32 158.982,96.027C155.654,96.963 152.614,97.865 150.377,98.607C150.276,98.641 150.177,98.674 150.08,98.707C149.59,98.529 149.049,98.338 148.465,98.139C146.409,97.439 143.87,96.662 141.121,95.879C139.245,95.346 137.364,94.862 135.439,94.392C128.189,92.619 121.86,91.303 121.86,91.303C121.378,91.106 120.757,91.219 120.475,91.555C120.192,91.892 120.354,92.326 120.836,92.523Z"/>
        </g>
        <g transform="matrix(0.986413,0,0,1.41162,2.03773,-55.9885)">
            <path d="M120.985,92.345C120.985,92.345 126.034,95.33 131.924,98.58C133.502,99.451 135.1,100.312 136.71,101.136C139.089,102.354 141.361,103.472 143.255,104.349C145.911,105.577 147.767,106.313 147.767,106.313C149.147,106.879 150.856,106.878 152.235,106.312C152.235,106.312 153.58,105.77 155.598,104.819C157.635,103.86 160.325,102.51 163.187,101.032C165.335,99.923 167.497,98.758 169.561,97.628C174.777,94.772 178.972,92.345 178.972,92.345C179.313,92.205 179.427,91.898 179.227,91.659C179.027,91.421 178.587,91.341 178.246,91.481C178.246,91.481 173.169,92.858 167.058,94.65C164.64,95.359 162.132,96.111 159.7,96.881C156.458,97.908 153.46,98.892 151.268,99.668C150.819,99.826 150.406,99.976 150.034,100.114C149.346,99.849 148.516,99.538 147.576,99.199C145.556,98.472 143.051,97.632 140.368,96.777C138.552,96.197 136.696,95.643 134.839,95.107C127.903,93.102 121.71,91.481 121.71,91.481C121.369,91.341 120.93,91.421 120.729,91.66C120.529,91.898 120.644,92.205 120.985,92.345Z"/>
        </g>
        <g transform="matrix(0.493207,-0.854259,1.2225,0.705811,-102.372,175.145)">
            <path d="M120.985,92.345C120.985,92.345 126.034,95.33 131.924,98.58C133.502,99.451 135.1,100.312 136.71,101.136C139.089,102.354 141.361,103.472 143.255,104.349C145.911,105.577 147.767,106.313 147.767,106.313C149.147,106.879 150.856,106.878 152.235,106.312C152.235,106.312 153.58,105.77 155.598,104.819C157.635,103.86 160.325,102.51 163.187,101.032C165.335,99.923 167.497,98.758 169.561,97.628C174.777,94.772 178.972,92.345 178.972,92.345C179.313,92.205 179.427,91.898 179.227,91.659C179.027,91.421 178.587,91.341 178.246,91.481C178.246,91.481 173.169,92.858 167.058,94.65C164.64,95.359 162.132,96.111 159.7,96.881C156.458,97.908 153.46,98.892 151.268,99.668C150.82,99.826 150.407,99.976 150.034,100.114C149.346,99.849 148.516,99.538 147.576,99.199C145.556,98.472 143.051,97.632 140.368,96.777C138.552,96.197 136.696,95.643 134.839,95.107C127.903,93.102 121.71,91.481 121.71,91.481C121.369,91.341 120.93,91.421 120.729,91.66C120.529,91.898 120.644,92.205 120.985,92.345Z"/>
        </g>
        <g transform="matrix(-0.493207,-0.854259,1.2225,-0.705811,45.5898,381.133)">
            <path d="M120.985,92.345C120.985,92.345 126.034,95.33 131.924,98.58C133.502,99.451 135.1,100.312 136.71,101.136C139.089,102.354 141.361,103.472 143.255,104.349C145.911,105.577 147.767,106.313 147.767,106.313C149.147,106.879 150.856,106.878 152.235,106.312C152.235,106.312 153.58,105.77 155.598,104.819C157.635,103.86 160.325,102.51 163.187,101.032C165.335,99.923 167.497,98.758 169.561,97.628C174.777,94.772 178.972,92.345 178.972,92.345C179.313,92.205 179.427,91.898 179.227,91.659C179.027,91.421 178.587,91.341 178.246,91.481C178.246,91.481 173.169,92.858 167.058,94.65C164.64,95.359 162.132,96.111 159.7,96.881C156.458,97.908 153.46,98.892 151.268,99.668C150.82,99.826 150.407,99.976 150.034,100.114C149.346,99.849 148.516,99.538 147.576,99.199C145.556,98.472 143.051,97.632 140.368,96.777C138.552,96.197 136.696,95.643 134.839,95.107C127.903,93.102 121.71,91.481 121.71,91.481C121.369,91.341 120.93,91.421 120.729,91.66C120.529,91.898 120.644,92.205 120.985,92.345Z"/>
        </g>
        <g transform="matrix(-0.986413,-3.88578e-16,4.44089e-16,-1.41162,297.962,355.989)">
            <path d="M120.985,92.345C120.985,92.345 126.034,95.33 131.924,98.58C133.502,99.451 135.1,100.312 136.71,101.136C139.089,102.354 141.361,103.472 143.255,104.349C145.911,105.577 147.767,106.313 147.767,106.313C149.147,106.879 150.856,106.878 152.235,106.312C152.235,106.312 153.58,105.77 155.598,104.819C157.635,103.86 160.325,102.51 163.187,101.032C165.335,99.923 167.497,98.758 169.561,97.628C174.777,94.772 178.972,92.345 178.972,92.345C179.313,92.205 179.427,91.898 179.227,91.659C179.027,91.421 178.587,91.341 178.246,91.481C178.246,91.481 173.169,92.858 167.058,94.65C164.64,95.359 162.132,96.111 159.7,96.881C156.458,97.908 153.46,98.892 151.268,99.668C150.819,99.826 150.406,99.976 150.034,100.114C149.346,99.849 148.516,99.538 147.576,99.199C145.556,98.472 143.051,97.632 140.368,96.777C138.552,96.197 136.696,95.643 134.839,95.107C127.903,93.102 121.71,91.481 121.71,91.481C121.369,91.341 120.93,91.421 120.729,91.66C120.529,91.898 120.644,92.205 120.985,92.345Z"/>
        </g>
        <g transform="matrix(-0.493207,0.854259,-1.2225,-0.705811,402.372,124.855)">
            <path d="M120.985,92.345C120.985,92.345 126.034,95.33 131.924,98.58C133.502,99.451 135.1,100.312 136.71,101.136C139.089,102.354 141.361,103.472 143.255,104.349C145.911,105.577 147.767,106.313 147.767,106.313C149.147,106.879 150.856,106.878 152.235,106.312C152.235,106.312 153.58,105.77 155.598,104.819C157.635,103.86 160.325,102.51 163.187,101.032C165.335,99.923 167.497,98.758 169.561,97.628C174.777,94.772 178.972,92.345 178.972,92.345C179.313,92.205 179.427,91.898 179.227,91.659C179.027,91.421 178.587,91.341 178.246,91.481C178.246,91.481 173.169,92.858 167.058,94.65C164.64,95.359 162.132,96.111 159.7,96.881C156.458,97.908 153.46,98.892 151.268,99.668C150.82,99.826 150.407,99.976 150.034,100.114C149.346,99.849 148.516,99.538 147.576,99.199C145.556,98.472 143.051,97.632 140.368,96.777C138.552,96.197 136.696,95.643 134.839,95.107C127.903,93.102 121.71,91.481 121.71,91.481C121.369,91.341 120.93,91.421 120.729,91.66C120.529,91.898 120.644,92.205 120.985,92.345Z"/>
        </g>
        <g transform="matrix(0.493207,0.854259,-1.2225,0.705811,254.41,-81.1334)">
            <path d="M120.985,92.345C120.985,92.345 126.034,95.33 131.924,98.58C133.502,99.451 135.1,100.312 136.71,101.136C139.089,102.354 141.361,103.472 143.255,104.349C145.911,105.577 147.767,106.313 147.767,106.313C149.147,106.879 150.856,106.878 152.235,106.312C152.235,106.312 153.58,105.77 155.598,104.819C157.635,103.86 160.325,102.51 163.187,101.032C165.335,99.923 167.497,98.758 169.561,97.628C174.777,94.772 178.972,92.345 178.972,92.345C179.313,92.205 179.427,91.898 179.227,91.659C179.027,91.421 178.587,91.341 178.246,91.481C178.246,91.481 173.169,92.858 167.058,94.65C164.64,95.359 162.132,96.111 159.7,96.881C156.458,97.908 153.46,98.892 151.268,99.668C150.82,99.826 150.407,99.976 150.034,100.114C149.346,99.849 148.516,99.538 147.576,99.199C145.556,98.472 143.051,97.632 140.368,96.777C138.552,96.197 136.696,95.643 134.839,95.107C127.903,93.102 121.71,91.481 121.71,91.481C121.369,91.341 120.93,91.421 120.729,91.66C120.529,91.898 120.644,92.205 120.985,92.345Z"/>
        </g>
    </g>
</svg>
