<?xml version="1.0" encoding="UTF-8" standalone="no"?>
<!DOCTYPE svg PUBLIC "-//W3C//DTD SVG 1.1//EN" "http://www.w3.org/Graphics/SVG/1.1/DTD/svg11.dtd">
<svg width="100%" height="100%" viewBox="0 0 300 300" version="1.1" xmlns="http://www.w3.org/2000/svg" xmlns:xlink="http://www.w3.org/1999/xlink" xml:space="preserve" xmlns:serif="http://www.serif.com/" style="fill-rule:evenodd;clip-rule:evenodd;stroke-linejoin:round;stroke-miterlimit:2;">
    <g transform="matrix(1.10128,0,0,1.10128,-32.1007,-9.62695)">
        <path d="M283.717,179.964C283.717,179.964 265.03,179.739 238.892,179.509C232.841,179.455 226.395,179.391 219.686,179.392C188.605,179.394 151.97,179.676 123.711,179.275C106.012,179.023 91.62,178.606 83.999,177.828C75.31,176.956 66.156,175.026 59.618,171.292C54.936,168.618 51.628,165.025 51.544,159.95C51.44,153.813 55.73,147.287 61.616,142.098C67.188,137.185 74.283,133.477 81.05,132.582C85.825,131.955 90.395,132.26 94.104,133.781C97.813,135.302 100.584,138.105 101.593,142.433C102.164,144.88 102.189,147.156 101.584,149.27C100.985,151.361 99.774,153.281 97.974,155.067C95.403,157.621 92.676,159.217 89.792,160.168C87.591,160.894 85.298,161.19 82.925,161.383C81.894,161.467 80.857,161.582 79.793,161.622C76.162,161.758 73.324,159.537 73.558,156.165C73.76,153.262 75.695,149.857 80.097,146.417C80.512,146.139 80.624,145.577 80.346,145.161C80.069,144.746 79.506,144.634 79.091,144.912C71.325,149.321 69.137,154.84 69.744,158.989C70.392,163.427 74.315,166.654 79.639,167.15C80.842,167.262 82.022,167.355 83.196,167.344C86.129,167.316 88.953,166.814 91.671,165.941C95.405,164.742 98.937,162.687 102.264,159.396C104.88,156.806 106.581,153.986 107.451,150.95C108.329,147.888 108.365,144.592 107.538,141.046C106.33,135.879 103.445,132.164 99.512,129.717C94.468,126.578 87.567,125.582 80.255,126.548C72.377,127.583 64.071,131.803 57.579,137.515C50.219,143.992 45.291,152.383 45.413,160.05C45.531,167.333 49.855,172.787 56.574,176.622C63.773,180.732 73.824,182.96 83.392,183.911C98.802,185.401 141.595,185.517 183.724,184.98C197.463,184.805 211.133,184.629 223.749,184.259C257.529,183.267 283.754,181.775 283.754,181.775C284.253,181.765 284.651,181.351 284.64,180.851C284.63,180.352 284.216,179.954 283.717,179.964Z"/>
    </g>
    <g transform="matrix(1.10128,0,0,1.10128,-44.6347,1.8223)">
        <path d="M157.83,110.998C163.396,114.033 167.807,116.958 171.471,119.632C174.587,121.907 177.043,123.991 178.553,126.411C181.058,130.428 180.788,135.063 177.954,141.188C175.049,147.607 168.68,152.059 161.693,154.557C154.434,157.153 146.393,157.661 140.394,155.231C136.656,153.743 134.346,152.154 132.924,150.453C130.494,147.546 130.624,144.469 130.002,141.946C129.69,140.686 130.257,136.006 132.719,131.828C134.385,128.999 136.963,126.383 140.939,125.267C144.671,124.22 147.999,124.367 150.775,125.217C154.43,126.337 157.138,128.6 158.432,130.804C160.466,134.233 160.013,138.061 156.808,139.963C155.642,140.656 154.174,141.073 152.394,141.317C151.139,141.489 149.791,141.631 148.236,141.634C147.291,141.636 146.34,141.777 145.294,141.6C145.032,141.555 144.778,141.454 144.516,141.374C144.276,141.302 144.023,141.437 143.951,141.677C143.878,141.916 144.014,142.169 144.253,142.242C144.523,142.323 144.798,142.374 145.052,142.473C146.093,142.879 146.941,143.406 147.878,143.737C149.554,144.328 151.105,144.601 152.551,144.663C154.98,144.766 157.015,144.139 158.65,143.305C164.04,140.555 165.326,134.344 162.266,128.64C160.619,125.604 157.137,122.328 152.249,120.661C148.722,119.459 144.454,119.118 139.628,120.325C134.118,121.704 130.435,125.156 128.037,128.984C124.411,134.772 123.951,141.486 124.346,143.272C125.078,146.565 125.169,150.44 128.244,154.282C130.099,156.6 133.056,158.928 138.022,161.021C145.281,164.03 155.109,163.857 163.894,160.626C172.449,157.48 179.93,151.495 183.29,143.52C186.744,135.124 186.403,128.857 182.76,123.635C180.793,120.815 177.894,118.147 173.812,115.918C171.57,114.693 168.992,113.642 166.08,112.609C163.65,111.748 161.044,110.973 158.177,110.161C157.946,110.065 157.681,110.175 157.585,110.406C157.489,110.637 157.599,110.902 157.83,110.998Z"/>
    </g>
    <g transform="matrix(0.857,0,0,0.857,61.1627,39.3595)">
        <path d="M130.167,142.081C130.208,142.063 130.14,141.959 130.129,141.916L130.167,142.081L130.154,142.085C129.599,142.112 130.309,140.602 130.658,139.493C131.336,137.34 132.639,134.631 134.805,132.473C137.15,130.137 140.515,128.458 145.159,128.896C149.399,129.236 152.206,130.126 154.587,131.819C157.065,133.581 159.21,135.961 161.613,139.873C161.78,140.256 162.227,140.43 162.609,140.263C162.992,140.095 163.166,139.649 162.999,139.266C161.568,134.188 160.095,130.692 157.621,128.225C154.947,125.557 151.183,124.325 145.735,123.58C139.114,122.771 134.26,125.113 130.819,128.363C127.272,131.714 125.303,136.133 124.521,139.173C124.037,141.055 124.052,142.552 124.219,143.301C124.955,146.611 125.055,150.502 128.142,154.365C130.006,156.697 132.976,159.043 137.967,161.155C145.114,164.2 154.401,164.81 162.8,162.676C171.513,160.462 179.184,155.246 182.968,146.954C185.715,141.028 186.384,136.114 185.717,131.251C185.101,126.752 183.199,122.274 180.392,116.949C179.538,115.372 178.112,113.401 176.201,111.361C174.263,109.291 171.826,107.103 169.219,105.041C164.706,101.473 159.69,98.292 155.771,96.689C150.825,94.701 145.721,93.358 140.491,94.035C138.312,94.316 136.131,94.897 133.949,95.914C128.918,98.261 123.845,102.609 118.91,110.287C118.651,110.615 118.707,111.091 119.035,111.35C119.363,111.608 119.839,111.552 120.098,111.224C125.786,105.294 130.938,102.239 135.774,100.974C137.539,100.512 139.237,100.406 140.902,100.406C145.033,100.405 148.893,101.738 152.613,103.634C155.872,105.27 159.883,108.437 163.572,111.745C165.749,113.698 167.774,115.738 169.452,117.585C170.743,119.006 171.837,120.265 172.441,121.338C174.855,125.52 176.628,129.002 177.272,132.587C177.887,136.012 177.454,139.494 175.695,143.777C173.085,150.028 167.349,153.899 160.926,155.739C154.066,157.704 146.401,157.44 140.449,155.097C136.737,153.625 134.438,152.057 133.026,150.37C130.661,147.546 130.742,144.555 130.167,142.081Z"/>
    </g>
    <g transform="matrix(0.364746,-0.631759,0.631759,0.364746,15.0398,143.322)">
        <path d="M122.976,117.643C127.485,113.153 131.472,111.475 135.163,111.466C137.054,111.461 138.719,112.181 140.404,112.979C144.676,115.004 148.39,118.857 151.543,122.334C155.715,126.759 158.915,132.3 161.587,137.741C164.554,143.779 166.809,149.777 167.273,154.783C167.818,160.353 166.148,164.096 162.727,165.767C158.842,167.666 153.535,167.298 148.295,165.263C143.889,163.545 140.295,159.751 137.504,155.749C133.635,150.199 131.265,144.194 130.665,141.79C130.519,141.204 130.233,140.124 130.296,138.95C130.341,138.126 130.515,137.176 131.405,136.559C132.787,135.603 135.075,135.241 138.711,135.575C141.756,135.847 144.31,137.448 146.304,139.687C147.257,140.757 148.019,142.003 148.809,143.245C150.845,146.441 152.644,149.765 153.166,153.31C153.154,153.801 153.543,154.208 154.033,154.22C154.524,154.232 154.931,153.844 154.943,153.353C155.733,149.451 155.673,145.169 154.269,141.192C153.915,140.188 153.36,139.272 152.819,138.368C149.844,133.4 145.17,129.815 139.415,129.073C133.539,128.339 129.881,129.375 127.591,130.852C122.233,134.31 123.151,140.987 123.683,143.427C124.399,146.697 127.655,155.673 133.275,163.034C136.494,167.25 140.506,170.887 145.167,172.895C152.787,176.183 160.606,176.413 166.463,173.872C173.072,171.005 177.622,164.663 177.156,154.083C176.855,147.935 174.984,140.23 171.224,132.902C167.965,126.552 163.292,120.573 157.986,115.764C153.877,112.169 149.093,108.106 143.824,106.413C142.302,105.924 140.781,105.588 139.219,105.514C133.287,105.231 127.003,107.5 121.575,116.549C121.273,116.935 121.341,117.494 121.728,117.796C122.115,118.098 122.674,118.03 122.976,117.643Z"/>
    </g>
    <g transform="matrix(0.327068,-0.327068,0.470972,0.470972,108.684,102.74)">
        <path d="M112.965,92.698C125.734,92.055 135.51,93.928 143.66,96.686C153.614,100.055 160.438,105.256 164.976,110.472C168.741,114.613 171.044,118.964 172.697,123.272C173.861,126.307 174.672,129.333 175.02,132.349C175.961,140.514 173.99,148.524 169.777,155.347C166.019,161.339 161.541,165.174 156.571,166.794C150.964,168.621 145.24,167.096 141.256,163.378C138.702,160.987 137.048,158.445 135.967,155.964C133.501,150.304 133.623,144.949 132.86,141.966C132.512,140.612 133.248,132.325 136.569,126.229C137.438,124.632 138.437,123.177 139.778,122.141C140.65,121.467 141.622,120.938 142.935,121.064C146.575,121.406 149.891,122.669 152.521,125.343C153.558,126.398 154.462,127.642 155.426,129.071C157.328,131.888 159.444,135.14 160.906,139.617C160.943,140.154 161.601,140.568 162.374,140.542C163.147,140.516 163.744,140.059 163.706,139.522C164.617,134.495 164.707,130.507 163.679,127.148C163.04,125.057 161.805,123.329 160.559,121.831C156.559,117.024 150.7,114.865 144.498,114.103C137.902,113.31 132.592,115.856 128.827,120.321C122.494,127.832 121.071,141.283 121.488,143.251C122.172,146.458 121.936,152.169 124.304,158.278C125.618,161.67 127.712,165.154 131.016,168.472C137.143,174.647 146.023,177.46 155.15,176.719C164.705,175.943 175.248,170.854 183.116,159.617C188.938,151.431 192.393,141.67 191.699,131.608C191.434,127.768 190.594,123.872 188.917,120.054C186.558,114.686 182.667,109.475 177.33,104.55C170.494,98.496 161.01,92.18 147.541,89.577C137.707,87.677 126.131,87.686 112.425,90.788C111.666,90.891 111.17,91.403 111.319,91.93C111.468,92.458 112.206,92.802 112.965,92.698Z"/>
    </g>
    <g transform="matrix(-0.129198,-0.417674,0.619539,-0.191641,33.0268,199.704)">
        <path d="M115.023,113.817C127.404,109.185 137.307,106.775 145.472,105.774C150.051,105.212 153.917,105.247 157.323,105.854C165.108,107.242 169.579,112.083 173.463,118.867C175.014,121.457 176.027,123.922 176.834,126.263C178.164,130.124 178.621,133.692 178.032,137.245C177.034,143.266 173.58,149.181 168.446,155.857C164.867,160.467 161.129,163.585 156.903,165.237C152.062,167.13 146.815,166.91 141.354,165.323C135.374,163.582 131.488,160.021 129.189,155.609C125.833,149.169 125.689,141.048 127.837,133.252C128.603,130.447 130.445,127.813 133.536,126.324C136.229,125.027 139.813,124.721 144.128,125.857C148.09,126.891 151.517,128.236 152.397,131.216C152.734,132.356 152.709,133.673 152.516,135.258C152.161,138.174 151.487,141.731 149.235,146.367C148.908,146.797 149.161,147.324 149.798,147.544C150.436,147.765 151.218,147.595 151.545,147.165C156.243,142.826 159.179,139.348 160.516,136.256C161.501,133.978 161.428,131.958 161.086,130.241C160.025,124.917 154.583,121.979 147.682,119.983C139.725,117.701 133.038,118.524 127.907,120.845C122.725,123.189 119.146,127.307 117.69,131.89C114.831,140.952 114.888,150.431 118.486,158.028C121.644,164.695 127.575,169.937 136.4,172.732C145.643,175.665 154.624,175.81 163.11,172.766C169.154,170.598 175.022,166.613 180.422,160.295C187.071,152.591 191.561,145.676 193.134,138.574C194.187,133.816 194.037,128.943 192.105,123.771C191.028,120.889 189.321,117.931 187.112,114.815C180.043,105.226 171.456,99.168 159.726,97.99C154.727,97.488 149.089,97.683 142.825,99.241C134.445,101.325 124.926,105.573 113.524,112.389C112.939,112.668 112.8,113.214 113.214,113.608C113.628,114.002 114.439,114.096 115.023,113.817Z"/>
    </g>
    <g transform="matrix(0.560178,0,0,0.560178,164.439,90.5887)">
        <path d="M119.403,108.639C124.177,103.643 129.874,101.393 135.654,100.386C145.732,98.63 156.161,101.486 162.168,104.589C170.603,108.754 177.197,114.76 181.37,121.335C185.823,128.353 187.326,136.125 184.183,142.928C182.942,145.717 180.214,147.663 177.056,149.395C173.691,151.242 169.807,152.814 165.683,153.833C156.588,156.081 146.729,156.48 140.736,154.398C136.831,152.889 134.091,150.88 132.273,148.658C129.627,145.423 128.889,141.904 128.851,139.603C128.762,133.794 132.441,129.2 137.409,126.527C142.423,123.829 148.77,122.962 154.519,124.916C159.026,126.25 163.205,128.787 163.31,132.799C163.395,136.012 161.193,139.735 155.672,144.045C155.127,144.417 154.985,145.161 155.356,145.707C155.728,146.252 156.472,146.394 157.018,146.022C164.528,141.599 167.378,136.936 167.763,132.956C168.347,126.923 163.172,121.798 156.641,119.017C149.208,116.194 140.831,116.969 134.177,120.33C126.735,124.09 121.534,131.068 121.523,139.654C121.515,143.11 122.523,148.389 126.349,153.36C128.774,156.51 132.361,159.549 137.68,161.854C145.893,165.755 161.082,166.725 173.828,163.569C177.259,162.72 180.506,161.55 183.376,160.041C189.023,157.075 193.201,152.808 195.343,147.804C198.909,139.171 198.298,129.651 193.845,120.825C188.817,110.859 178.992,101.705 165.958,96.254C159.624,93.705 149.441,91.265 139.414,93.066C131.102,94.56 123.023,98.699 117.526,107.158C117.117,107.676 117.206,108.428 117.724,108.837C118.242,109.246 118.995,109.157 119.403,108.639Z"/>
    </g>
</svg>
