<?xml version="1.0" encoding="UTF-8" standalone="no"?>
<!DOCTYPE svg PUBLIC "-//W3C//DTD SVG 1.1//EN" "http://www.w3.org/Graphics/SVG/1.1/DTD/svg11.dtd">
<svg width="100%" height="100%" viewBox="0 0 300 300" version="1.1" xmlns="http://www.w3.org/2000/svg" xmlns:xlink="http://www.w3.org/1999/xlink" xml:space="preserve" xmlns:serif="http://www.serif.com/" style="fill-rule:evenodd;clip-rule:evenodd;stroke-linejoin:round;stroke-miterlimit:2;">
    <g transform="matrix(1.15187,0,0,1.15187,-16.8703,3.57764)">
        <path d="M153.261,10.87C153.261,10.87 144.749,15.506 137.121,23.473C133.346,27.416 131.113,32.078 129.156,36.842C127.126,43.302 128.499,48.536 130.44,53.353C132.005,57.238 134.752,60.575 137.767,63.602C139.121,64.961 140.728,66.006 142.037,67.362C142.764,68.115 143.991,68.339 144.42,69.361C146.573,73.549 147.365,77.627 146.69,81.784C145.166,91.163 141.522,98.261 141.522,98.261C141.522,98.261 145.764,96.318 151.029,92.091C154.054,89.663 156.624,86.735 159.164,83.053C162.747,77.857 163.692,71.75 163.772,64.865C163.542,60.97 161.999,57.715 160.202,54.5C158.246,50.999 155.396,47.957 152.608,45.011C151.615,43.962 150.219,43.374 149.499,42.116C148.997,41.24 147.862,40.627 147.801,39.332C147.225,34.984 147.445,30.55 148.513,26.139C150.628,17.402 153.261,10.87 153.261,10.87Z"/>
    </g>
    <g transform="matrix(0.997545,-0.575933,0.575933,0.997545,-67.7251,106.63)">
        <path d="M153.261,10.87C153.261,10.87 144.749,15.506 137.121,23.473C133.346,27.416 131.113,32.078 129.156,36.842C127.126,43.302 128.499,48.536 130.44,53.353C132.005,57.238 134.752,60.575 137.767,63.602C139.121,64.961 140.728,66.006 142.037,67.362C142.764,68.115 143.991,68.339 144.42,69.361C146.573,73.549 147.365,77.627 146.69,81.784C145.166,91.163 141.522,98.261 141.522,98.261C141.522,98.261 145.764,96.318 151.029,92.091C154.054,89.663 156.624,86.735 159.164,83.053C162.747,77.857 163.692,71.75 163.772,64.865C163.542,60.97 161.999,57.715 160.202,54.5C158.246,50.999 155.396,47.957 152.608,45.011C151.615,43.962 150.219,43.374 149.499,42.116C148.997,41.24 147.862,40.627 147.801,39.332C147.225,34.984 147.445,30.55 148.513,26.139C150.628,17.402 153.261,10.87 153.261,10.87Z"/>
    </g>
    <g transform="matrix(0.575933,-0.997545,0.997545,0.575933,-60.2407,221.303)">
        <path d="M153.261,10.87C153.261,10.87 144.749,15.506 137.121,23.473C133.346,27.416 131.113,32.078 129.156,36.842C127.126,43.302 128.499,48.536 130.44,53.353C132.005,57.238 134.752,60.575 137.767,63.602C139.121,64.961 140.728,66.006 142.037,67.362C142.764,68.115 143.991,68.339 144.42,69.361C146.573,73.549 147.365,77.627 146.69,81.784C145.166,91.163 141.522,98.261 141.522,98.261C141.522,98.261 145.764,96.318 151.029,92.091C154.054,89.663 156.624,86.735 159.164,83.053C162.747,77.857 163.692,71.75 163.772,64.865C163.542,60.97 161.999,57.715 160.202,54.5C158.246,50.999 155.396,47.957 152.608,45.011C151.615,43.962 150.219,43.374 149.499,42.116C148.997,41.24 147.862,40.627 147.801,39.332C147.225,34.984 147.445,30.55 148.513,26.139C150.628,17.402 153.261,10.87 153.261,10.87Z"/>
    </g>
    <g transform="matrix(6.23611e-16,-1.15187,1.15187,6.23611e-16,3.57764,316.87)">
        <path d="M153.261,10.87C153.261,10.87 144.749,15.506 137.121,23.473C133.346,27.416 131.113,32.078 129.156,36.842C127.126,43.302 128.499,48.536 130.44,53.353C132.005,57.238 134.752,60.575 137.767,63.602C139.121,64.961 140.728,66.006 142.037,67.362C142.764,68.115 143.991,68.339 144.42,69.361C146.573,73.549 147.365,77.627 146.69,81.784C145.166,91.163 141.522,98.261 141.522,98.261C141.522,98.261 145.764,96.318 151.029,92.091C154.054,89.663 156.624,86.735 159.164,83.053C162.747,77.857 163.692,71.75 163.772,64.865C163.542,60.97 161.999,57.715 160.202,54.5C158.246,50.999 155.396,47.957 152.608,45.011C151.615,43.962 150.219,43.374 149.499,42.116C148.997,41.24 147.862,40.627 147.801,39.332C147.225,34.984 147.445,30.55 148.513,26.139C150.628,17.402 153.261,10.87 153.261,10.87Z"/>
    </g>
    <g transform="matrix(-0.575933,-0.997545,0.997545,-0.575933,106.63,367.725)">
        <path d="M153.261,10.87C153.261,10.87 144.749,15.506 137.121,23.473C133.346,27.416 131.113,32.078 129.156,36.842C127.126,43.302 128.499,48.536 130.44,53.353C132.005,57.238 134.752,60.575 137.767,63.602C139.121,64.961 140.728,66.006 142.037,67.362C142.764,68.115 143.991,68.339 144.42,69.361C146.573,73.549 147.365,77.627 146.69,81.784C145.166,91.163 141.522,98.261 141.522,98.261C141.522,98.261 145.764,96.318 151.029,92.091C154.054,89.663 156.624,86.735 159.164,83.053C162.747,77.857 163.692,71.75 163.772,64.865C163.542,60.97 161.999,57.715 160.202,54.5C158.246,50.999 155.396,47.957 152.608,45.011C151.615,43.962 150.219,43.374 149.499,42.116C148.997,41.24 147.862,40.627 147.801,39.332C147.225,34.984 147.445,30.55 148.513,26.139C150.628,17.402 153.261,10.87 153.261,10.87Z"/>
    </g>
    <g transform="matrix(-0.997545,-0.575933,0.575933,-0.997545,221.303,360.241)">
        <path d="M153.261,10.87C153.261,10.87 144.749,15.506 137.121,23.473C133.346,27.416 131.113,32.078 129.156,36.842C127.126,43.302 128.499,48.536 130.44,53.353C132.005,57.238 134.752,60.575 137.767,63.602C139.121,64.961 140.728,66.006 142.037,67.362C142.764,68.115 143.991,68.339 144.42,69.361C146.573,73.549 147.365,77.627 146.69,81.784C145.166,91.163 141.522,98.261 141.522,98.261C141.522,98.261 145.764,96.318 151.029,92.091C154.054,89.663 156.624,86.735 159.164,83.053C162.747,77.857 163.692,71.75 163.772,64.865C163.542,60.97 161.999,57.715 160.202,54.5C158.246,50.999 155.396,47.957 152.608,45.011C151.615,43.962 150.219,43.374 149.499,42.116C148.997,41.24 147.862,40.627 147.801,39.332C147.225,34.984 147.445,30.55 148.513,26.139C150.628,17.402 153.261,10.87 153.261,10.87Z"/>
    </g>
    <g transform="matrix(-1.15187,-1.35116e-15,1.35116e-15,-1.15187,316.87,296.422)">
        <path d="M153.261,10.87C153.261,10.87 144.749,15.506 137.121,23.473C133.346,27.416 131.113,32.078 129.156,36.842C127.126,43.302 128.499,48.536 130.44,53.353C132.005,57.238 134.752,60.575 137.767,63.602C139.121,64.961 140.728,66.006 142.037,67.362C142.764,68.115 143.991,68.339 144.42,69.361C146.573,73.549 147.365,77.627 146.69,81.784C145.166,91.163 141.522,98.261 141.522,98.261C141.522,98.261 145.764,96.318 151.029,92.091C154.054,89.663 156.624,86.735 159.164,83.053C162.747,77.857 163.692,71.75 163.772,64.865C163.542,60.97 161.999,57.715 160.202,54.5C158.246,50.999 155.396,47.957 152.608,45.011C151.615,43.962 150.219,43.374 149.499,42.116C148.997,41.24 147.862,40.627 147.801,39.332C147.225,34.984 147.445,30.55 148.513,26.139C150.628,17.402 153.261,10.87 153.261,10.87Z"/>
    </g>
    <g transform="matrix(-0.997545,0.575933,-0.575933,-0.997545,367.725,193.37)">
        <path d="M153.261,10.87C153.261,10.87 144.749,15.506 137.121,23.473C133.346,27.416 131.113,32.078 129.156,36.842C127.126,43.302 128.499,48.536 130.44,53.353C132.005,57.238 134.752,60.575 137.767,63.602C139.121,64.961 140.728,66.006 142.037,67.362C142.764,68.115 143.991,68.339 144.42,69.361C146.573,73.549 147.365,77.627 146.69,81.784C145.166,91.163 141.522,98.261 141.522,98.261C141.522,98.261 145.764,96.318 151.029,92.091C154.054,89.663 156.624,86.735 159.164,83.053C162.747,77.857 163.692,71.75 163.772,64.865C163.542,60.97 161.999,57.715 160.202,54.5C158.246,50.999 155.396,47.957 152.608,45.011C151.615,43.962 150.219,43.374 149.499,42.116C148.997,41.24 147.862,40.627 147.801,39.332C147.225,34.984 147.445,30.55 148.513,26.139C150.628,17.402 153.261,10.87 153.261,10.87Z"/>
    </g>
    <g transform="matrix(-0.575933,0.997545,-0.997545,-0.575933,360.241,78.6972)">
        <path d="M153.261,10.87C153.261,10.87 144.749,15.506 137.121,23.473C133.346,27.416 131.113,32.078 129.156,36.842C127.126,43.302 128.499,48.536 130.44,53.353C132.005,57.238 134.752,60.575 137.767,63.602C139.121,64.961 140.728,66.006 142.037,67.362C142.764,68.115 143.991,68.339 144.42,69.361C146.573,73.549 147.365,77.627 146.69,81.784C145.166,91.163 141.522,98.261 141.522,98.261C141.522,98.261 145.764,96.318 151.029,92.091C154.054,89.663 156.624,86.735 159.164,83.053C162.747,77.857 163.692,71.75 163.772,64.865C163.542,60.97 161.999,57.715 160.202,54.5C158.246,50.999 155.396,47.957 152.608,45.011C151.615,43.962 150.219,43.374 149.499,42.116C148.997,41.24 147.862,40.627 147.801,39.332C147.225,34.984 147.445,30.55 148.513,26.139C150.628,17.402 153.261,10.87 153.261,10.87Z"/>
    </g>
    <g transform="matrix(-2.0787e-15,1.15187,-1.15187,-2.0787e-15,296.422,-16.8703)">
        <path d="M153.261,10.87C153.261,10.87 144.749,15.506 137.121,23.473C133.346,27.416 131.113,32.078 129.156,36.842C127.126,43.302 128.499,48.536 130.44,53.353C132.005,57.238 134.752,60.575 137.767,63.602C139.121,64.961 140.728,66.006 142.037,67.362C142.764,68.115 143.991,68.339 144.42,69.361C146.573,73.549 147.365,77.627 146.69,81.784C145.166,91.163 141.522,98.261 141.522,98.261C141.522,98.261 145.764,96.318 151.029,92.091C154.054,89.663 156.624,86.735 159.164,83.053C162.747,77.857 163.692,71.75 163.772,64.865C163.542,60.97 161.999,57.715 160.202,54.5C158.246,50.999 155.396,47.957 152.608,45.011C151.615,43.962 150.219,43.374 149.499,42.116C148.997,41.24 147.862,40.627 147.801,39.332C147.225,34.984 147.445,30.55 148.513,26.139C150.628,17.402 153.261,10.87 153.261,10.87Z"/>
    </g>
    <g transform="matrix(0.575933,0.997545,-0.997545,0.575933,193.37,-67.7251)">
        <path d="M153.261,10.87C153.261,10.87 144.749,15.506 137.121,23.473C133.346,27.416 131.113,32.078 129.156,36.842C127.126,43.302 128.499,48.536 130.44,53.353C132.005,57.238 134.752,60.575 137.767,63.602C139.121,64.961 140.728,66.006 142.037,67.362C142.764,68.115 143.991,68.339 144.42,69.361C146.573,73.549 147.365,77.627 146.69,81.784C145.166,91.163 141.522,98.261 141.522,98.261C141.522,98.261 145.764,96.318 151.029,92.091C154.054,89.663 156.624,86.735 159.164,83.053C162.747,77.857 163.692,71.75 163.772,64.865C163.542,60.97 161.999,57.715 160.202,54.5C158.246,50.999 155.396,47.957 152.608,45.011C151.615,43.962 150.219,43.374 149.499,42.116C148.997,41.24 147.862,40.627 147.801,39.332C147.225,34.984 147.445,30.55 148.513,26.139C150.628,17.402 153.261,10.87 153.261,10.87Z"/>
    </g>
    <g transform="matrix(0.997545,0.575933,-0.575933,0.997545,78.6972,-60.2407)">
        <path d="M153.261,10.87C153.261,10.87 144.749,15.506 137.121,23.473C133.346,27.416 131.113,32.078 129.156,36.842C127.126,43.302 128.499,48.536 130.44,53.353C132.005,57.238 134.752,60.575 137.767,63.602C139.121,64.961 140.728,66.006 142.037,67.362C142.764,68.115 143.991,68.339 144.42,69.361C146.573,73.549 147.365,77.627 146.69,81.784C145.166,91.163 141.522,98.261 141.522,98.261C141.522,98.261 145.764,96.318 151.029,92.091C154.054,89.663 156.624,86.735 159.164,83.053C162.747,77.857 163.692,71.75 163.772,64.865C163.542,60.97 161.999,57.715 160.202,54.5C158.246,50.999 155.396,47.957 152.608,45.011C151.615,43.962 150.219,43.374 149.499,42.116C148.997,41.24 147.862,40.627 147.801,39.332C147.225,34.984 147.445,30.55 148.513,26.139C150.628,17.402 153.261,10.87 153.261,10.87Z"/>
    </g>
</svg>
