<?xml version="1.0" encoding="UTF-8" standalone="no"?>
<!DOCTYPE svg PUBLIC "-//W3C//DTD SVG 1.1//EN" "http://www.w3.org/Graphics/SVG/1.1/DTD/svg11.dtd">
<svg width="100%" height="100%" viewBox="0 0 300 300" version="1.1" xmlns="http://www.w3.org/2000/svg" xmlns:xlink="http://www.w3.org/1999/xlink" xml:space="preserve" xmlns:serif="http://www.serif.com/" style="fill-rule:evenodd;clip-rule:evenodd;stroke-linecap:round;stroke-linejoin:round;stroke-miterlimit:1.5;">
    <g transform="matrix(1.1224,0,0,1.1224,-28.5613,-42.0454)">
        <path d="M28.739,217.043C28.739,217.043 64.403,180.119 79.754,163.096C93.821,147.496 120.843,114.904 120.843,114.904C120.843,114.904 152.931,146.383 170.807,162.56C186.749,176.988 222.037,203.905 228.096,211.965C230.609,215.31 216.617,217.043 216.617,217.043C216.617,217.043 178.713,185.125 162.751,170.806C148.318,157.859 120.843,131.13 120.843,131.13C120.843,131.13 96.915,155.88 84.395,167.559C69.044,181.878 28.739,217.043 28.739,217.043Z" style="stroke:black;stroke-width:1.23px;"/>
    </g>
    <g transform="matrix(0.92833,0,0,0.92833,82.6198,-14.2261)">
        <path d="M91.931,160.292L85.137,156.906C85.137,156.906 96.524,144.683 101.948,138.302C107.899,131.302 120.843,114.904 120.843,114.904C120.843,114.904 157.507,143.154 175.382,159.33C191.325,173.758 215.51,194.142 228.096,211.965C233.103,219.056 216.617,217.043 216.617,217.043C216.617,217.043 183.289,181.895 167.326,167.576C152.893,154.629 120.843,131.13 120.843,131.13C120.843,131.13 112.926,140.198 108.698,144.462C103.879,149.322 91.931,160.292 91.931,160.292Z" style="stroke:black;stroke-width:1.49px;"/>
    </g>
</svg>
