<?xml version="1.0" encoding="UTF-8" standalone="no"?>
<!DOCTYPE svg PUBLIC "-//W3C//DTD SVG 1.1//EN" "http://www.w3.org/Graphics/SVG/1.1/DTD/svg11.dtd">
<svg width="100%" height="100%" viewBox="0 0 300 300" version="1.1" xmlns="http://www.w3.org/2000/svg" xmlns:xlink="http://www.w3.org/1999/xlink" xml:space="preserve" xmlns:serif="http://www.serif.com/" style="fill-rule:evenodd;clip-rule:evenodd;stroke-linejoin:round;stroke-miterlimit:2;">
    <g transform="matrix(0.846655,0,0,0.846655,-21.6937,53.8029)">
        <path d="M43.191,247.59C61.005,242.14 72.974,238.474 84.106,233.64C95.697,228.606 106.337,222.326 121.726,211.873C152.377,190.602 167.848,174.507 173.389,161.88C179.206,148.623 175.29,138.587 166.076,130.002C154.523,119.33 143.258,114.686 132.97,114.146C129.705,113.974 126.557,114.277 123.537,114.832C111.75,117.001 102.168,123.569 95.483,129.207C95.39,129.286 95.297,129.364 95.205,129.443C99.683,123.11 106.581,114.984 116.202,107.931C126.083,100.687 138.89,94.664 154.927,92.957C176.441,90.509 193.652,92.742 207.081,97.894C225.784,105.071 236.709,118.136 241.209,131.693C242.517,135.345 246.544,137.247 250.196,135.939C253.848,134.63 255.75,130.603 254.441,126.951C249.192,113.328 238.759,100.153 221.936,91.684C205.63,83.475 183.211,79.513 153.731,84.359C136.393,87.342 122.877,94.774 112.599,103.317C93.393,119.28 85.638,138.913 85.638,138.913C85.315,139.676 85.599,140.56 86.307,140.99C87.015,141.421 87.931,141.267 88.459,140.629C88.459,140.629 91.81,136.487 97.791,132.158C104.198,127.521 113.642,122.829 124.454,122.067C127.002,121.888 129.613,122.046 132.317,122.335C141.054,123.271 150.61,126.961 160.446,136.085C168.811,143.777 170.9,153.068 161.378,166.664C153.944,177.278 140.182,190.195 117.839,206.388C103.229,217.177 93.031,223.588 81.985,229.083C71.231,234.432 59.707,238.938 42.461,245.454C41.872,245.655 41.557,246.297 41.758,246.886C41.96,247.476 42.601,247.791 43.191,247.59Z"/>
    </g>
    <g transform="matrix(1,0,0,1,-8.26084,19.4783)">
        <path d="M91.475,245.221C113.33,236.093 130.912,227.95 146.528,218.164C163.403,207.587 177.954,195.134 193.374,178.111C203.335,167.023 211.227,153.267 216.505,139.517C222.842,123.009 225.379,106.521 223.676,94.709C222.343,85.56 218.825,78.286 214.149,72.761C208.456,66.033 201.033,61.888 193.658,60.09C181.913,57.672 170.221,59.102 159.561,62.448C151.05,65.12 143.328,69.119 136.64,72.843C129.449,76.848 123.575,80.761 119.878,83.366C122.719,75.333 130.527,58.806 149.347,46.806C161.199,39.249 177.43,33.548 199.567,32.863C216.259,32.273 232.786,35.819 247.434,43.164C261.746,50.339 274.209,61.214 283.202,75.463C285.003,78.21 288.694,78.978 291.441,77.178C294.188,75.378 294.957,71.686 293.156,68.939C282.517,53.299 268.15,41.537 251.816,34.037C235.532,26.561 217.347,23.257 199.129,24.528C175.457,26.285 158.346,33.174 146.016,41.83C119.262,60.61 115.021,87.516 115.021,87.516C114.89,88.245 115.232,88.977 115.875,89.343C116.519,89.71 117.324,89.63 117.883,89.145C117.883,89.145 125.625,81.765 137.925,75.206C142.388,72.826 147.506,70.714 152.948,68.915C164.904,64.963 178.636,63.033 191.995,66.867C198.039,68.36 204.102,71.792 208.77,77.311C212.691,81.948 215.622,88.053 216.759,95.726C218.392,106.629 215.89,121.821 210.189,137.129C205.313,150.22 198.094,163.408 188.8,174.063C174.125,191.027 160.075,203.328 143.958,214.216C128.831,224.437 111.912,233.451 90.699,243.475C90.217,243.689 90,244.254 90.214,244.736C90.428,245.218 90.993,245.435 91.475,245.221Z"/>
    </g>
</svg>
