<?xml version="1.0" encoding="UTF-8" standalone="no"?>
<!DOCTYPE svg PUBLIC "-//W3C//DTD SVG 1.1//EN" "http://www.w3.org/Graphics/SVG/1.1/DTD/svg11.dtd">
<svg width="100%" height="100%" viewBox="0 0 300 300" version="1.1" xmlns="http://www.w3.org/2000/svg" xmlns:xlink="http://www.w3.org/1999/xlink" xml:space="preserve" xmlns:serif="http://www.serif.com/" style="fill-rule:evenodd;clip-rule:evenodd;stroke-linejoin:round;stroke-miterlimit:2;">
    <g transform="matrix(0.910078,0,0,0.910078,14.3456,-8.29866)">
        <path d="M216.451,32.877C210.288,40.781 205.107,47.817 200.458,54.214C194.459,62.467 189.568,69.615 185.263,76.195C174.561,92.557 167.916,105.34 158.928,122.212C149.663,139.144 139.973,162.25 131.931,186.771C124.495,209.442 118.453,233.317 115.602,254.667C115.438,255.821 116.242,256.892 117.397,257.056C118.551,257.22 119.621,256.416 119.785,255.262C122.958,234.231 129.272,210.743 137.05,188.506C145.43,164.551 155.507,142.059 164.985,125.614C174.549,109.442 181.126,96.807 192.839,81.574C197.489,75.526 202.998,69.158 209.794,61.959C215.098,56.34 221.234,50.395 228.331,43.645C231.303,40.367 231.054,35.292 227.775,32.321C224.497,29.349 219.423,29.599 216.451,32.877Z"/>
    </g>
    <g transform="matrix(0.918649,0.44959,-0.44959,0.918649,40.797,36.4742)">
        <path d="M120.141,90.306C114.052,90.488 108.008,92.861 103.615,96.719C98.725,101.013 95.762,106.952 96.7,113.455C97.491,119.178 99.906,124.895 103.53,129.252C107.538,134.071 112.96,137.285 119.348,137.222C124.89,137.267 129.025,135.664 132.289,132.706C136.185,129.176 138.818,123.435 140.715,115.364C142.27,108.986 140.278,102.774 136.349,98.093C132.48,93.485 126.6,90.512 120.141,90.306ZM120.141,99.106C124.155,98.978 127.924,100.597 130.495,103.312C133.114,106.079 134.61,109.871 133.863,113.895C132.843,119.18 131.576,123.355 129.483,126.31C127.222,129.503 123.988,131.048 119.348,131.091C114.911,131.047 111.223,128.641 108.543,125.211C105.813,121.716 104.167,117.132 103.734,112.632C103.377,108.657 105.542,105.231 108.654,102.796C111.788,100.344 115.997,98.982 120.141,99.106Z"/>
    </g>
    <g transform="matrix(0.175185,1.01352,-1.01352,0.175185,249.646,66.5694)">
        <path d="M120.141,90.331C114.054,90.5 108.007,92.863 103.611,96.713C98.712,101.003 95.749,106.949 96.684,113.457C97.486,119.179 99.895,124.903 103.542,129.243C107.559,134.023 112.985,137.196 119.348,137.082C124.82,137.043 128.876,135.423 132.072,132.472C135.893,128.944 138.495,123.276 140.344,115.285C141.924,109.021 139.966,102.918 136.154,98.266C132.361,93.638 126.56,90.636 120.141,90.331L120.141,90.331ZM120.141,99.081C124.201,98.888 128.056,100.422 130.689,103.139C133.412,105.948 134.968,109.837 134.234,113.974C133.188,119.315 131.896,123.539 129.756,126.51C127.424,129.747 124.08,131.251 119.348,131.231C114.885,131.151 111.21,128.685 108.532,125.22C105.819,121.711 104.174,117.131 103.751,112.63C103.391,108.66 105.553,105.239 108.659,102.801C111.79,100.344 115.995,98.966 120.141,99.081L120.141,99.081Z"/>
    </g>
    <g transform="matrix(0.962154,-0.526091,0.526091,0.962154,-63.2039,94.7234)">
        <path d="M120.141,90.602C114.109,90.74 108.113,93.074 103.736,96.864C98.853,101.093 95.899,106.984 96.787,113.445C97.714,120.369 101.035,127.289 106.002,131.807C109.669,135.143 114.191,137.24 119.348,137.196C124.875,137.219 128.996,135.615 132.239,132.652C136.108,129.117 138.714,123.386 140.569,115.333C142.079,109.009 140.099,102.857 136.184,98.24C132.339,93.706 126.523,90.774 120.141,90.602L120.141,90.602ZM120.141,98.81C124.23,98.7 128.055,100.387 130.66,103.165C133.303,105.986 134.786,109.847 134.008,113.926C132.961,119.223 131.659,123.402 129.548,126.357C127.264,129.554 124.009,131.091 119.348,131.117C114.902,131.076 111.208,128.666 108.515,125.234C105.771,121.736 104.096,117.151 103.647,112.642C103.259,108.626 105.404,105.135 108.534,102.65C111.691,100.144 115.941,98.714 120.141,98.81L120.141,98.81Z"/>
    </g>
    <g transform="matrix(1.09659,0,0,1.09659,41.7982,29.8419)">
        <path d="M120.141,90.602C114.122,90.785 108.15,93.137 103.809,96.952C98.999,101.179 96.081,107.021 97.006,113.419C97.788,119.086 100.182,124.744 103.768,129.061C107.715,133.812 113.052,136.988 119.348,136.932C124.806,136.979 128.88,135.409 132.095,132.498C135.958,129 138.558,123.305 140.439,115.305C141.969,109.019 140.009,102.895 136.134,98.284C132.315,93.739 126.514,90.802 120.141,90.602ZM120.141,98.81C124.241,98.681 128.085,100.347 130.709,103.121C133.388,105.953 134.904,109.837 134.139,113.954C133.111,119.286 131.823,123.496 129.712,126.478C127.4,129.745 124.096,131.335 119.348,131.381C114.819,131.34 111.043,128.902 108.306,125.403C105.539,121.865 103.868,117.224 103.429,112.668C103.063,108.588 105.265,105.061 108.461,102.562C111.648,100.07 115.927,98.682 120.141,98.81Z"/>
    </g>
    <g transform="matrix(1.11832,-0.626929,0.590126,1.05267,1.2512,60.2658)">
        <path d="M120.141,90.977C113.182,91.243 106.335,94.548 102.079,99.539C98.777,103.412 96.92,108.201 97.644,113.383C98.35,119.109 100.741,124.835 104.337,129.195C108.131,133.793 113.261,136.881 119.348,136.932C124.598,137.005 128.569,135.552 131.704,132.826C135.713,129.341 138.347,123.538 140.225,115.34C141.71,108.91 139.64,102.658 135.542,98.062C131.771,93.832 126.216,91.092 120.141,90.977ZM120.141,98.435C124.321,98.356 128.21,100.084 130.897,102.898C133.639,105.769 135.182,109.733 134.352,113.918C133.27,119.341 131.905,123.586 129.717,126.563C127.373,129.754 124.073,131.315 119.348,131.38C114.8,131.418 110.926,129.131 108.087,125.698C105.146,122.142 103.31,117.388 102.791,112.703C102.389,108.393 104.726,104.663 108.147,102.08C111.449,99.588 115.834,98.265 120.141,98.435Z"/>
    </g>
    <g transform="matrix(1.24729,0,0,1.16272,-16.6816,-44.6815)">
        <path d="M120.141,90.836C113.138,90.977 106.191,94.21 101.837,99.166C98.362,103.12 96.444,108.089 97.153,113.456C97.911,119.295 100.364,125.139 104.084,129.539C107.97,134.137 113.195,137.201 119.348,137.164C124.61,137.195 128.584,135.717 131.721,132.98C135.753,129.462 138.413,123.634 140.287,115.37C141.789,108.878 139.689,102.565 135.543,97.929C131.764,93.704 126.215,90.964 120.141,90.836ZM120.141,98.576C124.288,98.489 128.154,100.178 130.831,102.96C133.564,105.799 135.113,109.732 134.29,113.889C133.199,119.304 131.835,123.546 129.631,126.502C127.299,129.63 124.012,131.118 119.348,131.148C114.896,131.122 111.15,128.806 108.398,125.423C105.538,121.907 103.762,117.233 103.282,112.631C102.861,108.494 105.126,104.926 108.387,102.406C111.614,99.912 115.897,98.49 120.141,98.576Z"/>
    </g>
    <g transform="matrix(1.03709,0.356302,-0.356302,1.03709,29.9043,90.3805)">
        <path d="M120.141,90.602C114.111,90.747 108.12,93.086 103.747,96.878C98.873,101.106 95.921,106.988 96.81,113.442C97.574,119.154 99.969,124.862 103.566,129.224C107.551,134.056 112.964,137.278 119.348,137.241C124.894,137.282 129.036,135.68 132.295,132.712C136.179,129.174 138.79,123.424 140.652,115.351C141.764,110.641 140.937,106.027 138.859,102.064C136.787,98.111 133.373,94.859 129.259,92.823C127.864,92.13 126.379,91.6 124.84,91.216C123.325,90.838 121.751,90.641 120.141,90.602ZM120.141,98.81C121.144,98.786 122.13,98.854 123.083,99.044C124.073,99.241 125.033,99.526 125.94,99.924C128.661,101.123 130.983,103.11 132.434,105.61C133.847,108.044 134.502,110.92 133.925,113.908C132.88,119.191 131.58,123.356 129.478,126.307C127.211,129.49 123.984,131.033 119.348,131.071C114.908,131.046 111.204,128.661 108.508,125.24C105.755,121.745 104.078,117.156 103.625,112.645C103.237,108.621 105.385,105.123 108.522,102.636C111.683,100.131 115.939,98.709 120.141,98.81Z"/>
    </g>
</svg>
