<?xml version="1.0" encoding="UTF-8" standalone="no"?>
<!DOCTYPE svg PUBLIC "-//W3C//DTD SVG 1.1//EN" "http://www.w3.org/Graphics/SVG/1.1/DTD/svg11.dtd">
<svg width="100%" height="100%" viewBox="0 0 300 300" version="1.1" xmlns="http://www.w3.org/2000/svg" xmlns:xlink="http://www.w3.org/1999/xlink" xml:space="preserve" xmlns:serif="http://www.serif.com/" style="fill-rule:evenodd;clip-rule:evenodd;stroke-linejoin:round;stroke-miterlimit:2;">
    <g transform="matrix(1.18647,0,0,1.18647,-4.69622,-12.1024)">
        <path d="M197.555,19.856L145.501,86.837L148.919,91.092L166.008,111.464C166.008,111.464 64.14,188.702 64.14,188.702L63.903,189.885C63.903,189.885 61.689,201.712 59.577,215.202C56.804,232.913 54.143,253.388 54.143,253.388L54.528,253.465C54.528,253.465 59.947,233.542 64.199,216.127C66.814,205.416 68.951,195.682 69.677,192.33C69.677,192.33 183.487,113.623 183.487,113.623L179.489,108.645L162.887,87.054C162.887,87.054 210.697,30.494 210.697,30.494L197.555,19.856Z"/>
    </g>
    <g transform="matrix(1.18647,0,0,1.18647,-0.552239,-10.6089)">
        <path d="M144.965,135.178L189.17,159.324C187.15,162.227 184.046,166.74 181.028,171.327C175.926,179.082 171.145,186.934 171.145,186.934C171.035,187.074 171.06,187.277 171.2,187.387C171.34,187.497 171.543,187.472 171.653,187.332C171.653,187.332 178.126,180.803 184.427,173.987C190.692,167.211 196.694,160.247 196.694,160.247L198.992,157.311L195.828,155.339L151.784,124.237C148.765,122.355 144.786,123.278 142.904,126.297C141.022,129.317 141.946,133.296 144.965,135.178Z"/>
    </g>
    <g transform="matrix(1.18647,0,0,1.18647,-8.67875,-7.62204)">
        <path d="M174.13,53.949L93.648,64.175L92.665,66.268C92.665,66.268 83.897,86.054 78.523,100.851C75.412,109.415 73.623,116.218 73.623,116.218C73.62,116.225 73.623,116.234 73.63,116.237C73.637,116.241 73.646,116.237 73.65,116.23C73.65,116.23 77.742,110.509 82.345,102.646C88.679,91.824 96.074,77.325 98.822,71.872C98.822,71.872 175.381,68.568 175.381,68.568C179.415,68.223 182.41,64.667 182.065,60.633C181.719,56.599 178.164,53.604 174.13,53.949Z"/>
    </g>
    <g transform="matrix(1.18647,0,0,1.18647,-26.6003,-19.5697)">
        <path d="M111.577,176.827L124.176,209.14C123.55,211.798 121.691,219.78 120.25,226.93C118.898,233.639 117.959,239.537 117.959,239.537C117.935,239.621 117.984,239.709 118.068,239.733C118.152,239.757 118.24,239.709 118.264,239.624C118.264,239.624 120.603,234.129 123.022,227.727C126.172,219.394 129.453,209.679 129.453,209.679L129.676,208.904L129.427,208.137L120.451,173.942C119.656,171.493 117.021,170.151 114.572,170.947C112.123,171.743 110.781,174.378 111.577,176.827Z"/>
    </g>
    <path d="M96.348,92.251L117.763,109.397C118.094,113.816 119.19,128.014 120.394,138.803C121.224,146.234 122.167,151.971 122.167,151.971C122.169,152.026 122.215,152.069 122.27,152.067C122.325,152.065 122.368,152.019 122.366,151.964C122.366,151.964 122.87,146.171 123.132,138.699C123.588,125.687 123.515,107.8 123.515,107.8L123.467,106.546L122.526,105.715L102.031,85.81C100.254,84.241 97.538,84.411 95.969,86.189C94.401,87.966 94.571,90.683 96.348,92.251Z"/>
</svg>
