<?xml version="1.0" encoding="UTF-8" standalone="no"?>
<!DOCTYPE svg PUBLIC "-//W3C//DTD SVG 1.1//EN" "http://www.w3.org/Graphics/SVG/1.1/DTD/svg11.dtd">
<svg width="100%" height="100%" viewBox="0 0 300 300" version="1.1" xmlns="http://www.w3.org/2000/svg" xmlns:xlink="http://www.w3.org/1999/xlink" xml:space="preserve" xmlns:serif="http://www.serif.com/" style="fill-rule:evenodd;clip-rule:evenodd;stroke-linejoin:round;stroke-miterlimit:2;">
    <g transform="matrix(1,0,0,1,-7.19492,-0.297314)">
        <path d="M154.913,26.739C154.913,26.739 161.385,50.793 159.58,64.181C157.691,78.19 152.883,88.376 148.4,95.081C137.926,110.749 129.384,118.052 115.95,130.888C98.89,147.188 86.154,156.233 78.472,171.132C70.85,185.915 66.121,205.795 69.86,220.28C73.6,234.765 87.762,249.58 100.909,258.042C114.056,266.503 134.058,271.669 148.741,271.049C161.192,270.523 177.966,273.468 202.893,262.486C213.081,257.998 223.007,248.291 230.912,238.087C236.545,230.814 243.358,216.436 242.694,202.674C242.136,191.124 240.344,184.555 236.102,175.69C231.892,166.891 226.03,159.059 217.243,149.485C205.737,136.951 187.567,127.522 187.567,127.522C187.567,127.522 199.782,145.941 203.607,154.802C208.063,165.126 210.824,176.376 211.695,185.757C212.788,197.524 206.564,214.357 192.438,220.371C179.626,225.826 158.472,228.337 145.804,225.734C134.019,223.313 119.65,214.266 116.434,204.755C113.217,195.245 116.229,182.764 126.503,168.671C139.34,151.064 146.833,140.493 153.791,130.284C165.725,112.774 169.758,105.07 174.791,93.02C178.923,83.129 180.347,67.005 172.655,52.811C165.091,38.853 154.913,26.739 154.913,26.739Z"/>
    </g>
</svg>
