<?xml version="1.0" encoding="UTF-8" standalone="no"?>
<!DOCTYPE svg PUBLIC "-//W3C//DTD SVG 1.1//EN" "http://www.w3.org/Graphics/SVG/1.1/DTD/svg11.dtd">
<svg width="100%" height="100%" viewBox="0 0 300 300" version="1.1" xmlns="http://www.w3.org/2000/svg" xmlns:xlink="http://www.w3.org/1999/xlink" xml:space="preserve" xmlns:serif="http://www.serif.com/" style="fill-rule:evenodd;clip-rule:evenodd;stroke-linejoin:round;stroke-miterlimit:2;">
    <g transform="matrix(1.06121,0,0,1.06121,-9.87387,-8.7204)">
        <path d="M285,28.577C285,21.204 279.014,15.217 271.64,15.217C271.64,15.217 190.981,8.217 150.652,8.217C110.323,8.217 29.664,15.217 29.664,15.217C22.291,15.217 16.304,21.204 16.304,28.577C16.304,28.577 9.304,109.236 9.304,149.565C9.304,189.895 16.304,270.553 16.304,270.553C16.304,277.927 22.291,283.913 29.664,283.913C29.664,283.913 110.323,290.913 150.652,290.913C190.981,290.913 271.64,283.913 271.64,283.913C279.014,283.913 285,277.927 285,270.553C285,270.553 292,189.895 292,149.565C292,109.236 285,28.577 285,28.577Z" style="fill:rgb(217,174,255);"/>
    </g>
</svg>
